<svg width="67" height="66" viewBox="0 0 67 66" fill="none" xmlns="http://www.w3.org/2000/svg">
<g clip-path="url(#clip0_25286_912)">
<path d="M56.1875 25.7812C56.1875 26.9203 55.264 27.8438 54.125 27.8438C52.986 27.8438 52.0625 26.9203 52.0625 25.7812C52.0625 24.6422 52.986 23.7188 54.125 23.7188C55.264 23.7188 56.1875 24.6422 56.1875 25.7812Z" fill="#F1F2F2"/>
<path d="M54.125 23.7188C52.986 23.7188 52.0625 24.6422 52.0625 25.7812C52.0625 26.9203 52.986 27.8438 54.125 27.8438C55.264 27.8438 56.1875 26.9203 56.1875 25.7812C56.184 24.6438 55.2625 23.7223 54.125 23.7188ZM54.125 19.5938H65.4688V60.8438C65.4688 63.1218 63.6218 64.9688 61.3438 64.9688H37.625C38.7625 64.9652 39.684 64.0437 39.6875 62.9062V42.2812H42.7812V36.0938H22.1562C31.4375 36.0938 32.4688 28.875 32.4688 28.875H25.25C24.4242 28.8574 23.6271 29.1776 23.043 29.7617C22.4589 30.3458 22.1386 31.1429 22.1562 31.9688C22.1739 31.1429 21.8536 30.3458 21.2695 29.7617C20.6854 29.1776 19.8883 28.8574 19.0625 28.875H18.0312V19.5938H54.125Z" fill="#FED049"/>
<path d="M54.125 13.4062H65.4688V19.5938H54.125V13.4062Z" fill="#F6B445"/>
<path d="M29.375 13.4062H54.125V19.5938H29.375V13.4062Z" fill="#F6B445"/>
<path d="M18.0312 13.4062H29.375V19.5938H18.0312V13.4062Z" fill="#F6B445"/>
<path d="M22.1562 36.0944V31.9694C22.1386 31.1436 22.4589 30.3465 23.043 29.7624C23.6271 29.1783 24.4242 28.8581 25.25 28.8757H32.4687C32.4687 28.8757 31.4375 36.0944 22.1562 36.0944Z" fill="#F1F2F2"/>
<path d="M22.1562 31.9694V36.0944C12.875 36.0944 11.8438 28.8757 11.8438 28.8757H19.0625C19.8883 28.8581 20.6854 29.1783 21.2695 29.7624C21.8536 30.3465 22.1739 31.1436 22.1562 31.9694Z" fill="#F1F2F2"/>
<path d="M18.0312 42.2812H26.2812V64.9688H18.0312V42.2812Z" fill="#A4B0C0"/>
<path d="M28.3438 36.0938V42.2812H15.9688V36.0938H28.3438Z" fill="#D0D7DF"/>
<path d="M18.0312 42.2812V64.9688H6.6875C5.55 64.9652 4.62852 64.0437 4.625 62.9062V42.2812H18.0312Z" fill="#FA5C66"/>
<path d="M39.6875 46.4062V62.9062C39.684 64.0437 38.7625 64.9652 37.625 64.9688H26.2812V42.2812H39.6875V46.4062Z" fill="#FA5C66"/>
<path d="M42.7813 36.0938V42.2812H28.3438V36.0938H42.7813Z" fill="#FA5C66"/>
<path d="M15.9688 36.0938V42.2812H1.53125V36.0938H15.9688Z" fill="#FA5C66"/>
<path d="M65.4688 12.375H55.1562V5.15625C55.1527 2.30974 52.8465 0.00352479 50 0H33.5C30.6535 0.00352479 28.3473 2.30974 28.3438 5.15625V12.375H18.0312C17.4617 12.375 17 12.8367 17 13.4062V25.7812H19.0625V20.625H28.3438V22.8773C27.1121 23.3129 26.2868 24.4751 26.2812 25.7812H28.3438C28.3438 25.2117 28.8055 24.75 29.375 24.75C29.9445 24.75 30.4062 25.2117 30.4062 25.7812H32.4688C32.4632 24.4751 31.6379 23.3129 30.4062 22.8773V20.625H53.0938V22.8773C51.6733 23.3794 50.8208 24.8321 51.0756 26.317C51.3304 27.8025 52.6184 28.8876 54.125 28.8876C55.6316 28.8876 56.9196 27.8025 57.1744 26.317C57.4292 24.8321 56.5767 23.3794 55.1562 22.8773V20.625H64.4375V60.8438C64.4375 62.5523 63.0523 63.9375 61.3438 63.9375H41.75V66H61.3438C64.1903 65.9965 66.4965 63.6903 66.5 60.8438V13.4062C66.5 12.8367 66.0383 12.375 65.4688 12.375ZM54.125 26.8125C53.5555 26.8125 53.0938 26.3508 53.0938 25.7812C53.0938 25.2117 53.5555 24.75 54.125 24.75C54.6945 24.75 55.1562 25.2117 55.1562 25.7812C55.1562 26.3508 54.6945 26.8125 54.125 26.8125ZM30.4062 5.15625C30.4062 3.44774 31.7915 2.0625 33.5 2.0625H50C51.7085 2.0625 53.0938 3.44774 53.0938 5.15625V12.375H30.4062V5.15625ZM19.0625 18.5625V14.4375H28.3438V18.5625H19.0625ZM30.4062 18.5625V14.4375H53.0938V18.5625H30.4062ZM55.1562 18.5625V14.4375H64.4375V18.5625H55.1562Z" fill="black"/>
<path d="M42.7812 43.3117C43.3508 43.3117 43.8125 42.85 43.8125 42.2805V36.093C43.8125 35.5235 43.3508 35.0617 42.7812 35.0617H29.5089C31.5473 33.6191 32.9683 31.4624 33.4899 29.0207C33.5322 28.7247 33.4441 28.4246 33.2482 28.1985C33.0524 27.9729 32.7679 27.843 32.4688 27.843H25.25C24.0687 27.7956 22.9297 28.2891 22.1562 29.1834C21.3828 28.2891 20.2438 27.7956 19.0625 27.843H11.8438C11.5446 27.843 11.2601 27.9729 11.0643 28.1985C10.8684 28.4246 10.7803 28.7247 10.8226 29.0207C11.3442 31.4624 12.7652 33.6191 14.8036 35.0617H1.53125C0.961746 35.0617 0.5 35.5235 0.5 36.093V42.2805C0.5 42.85 0.961746 43.3117 1.53125 43.3117H3.59375V62.9055C3.59375 64.614 4.97899 65.9992 6.6875 65.9992H37.625C39.3335 65.9992 40.7188 64.614 40.7188 62.9055V43.3117H42.7812ZM41.75 41.2492H29.375V37.1242H41.75V41.2492ZM27.3125 37.1242V41.2492H17V37.1242H27.3125ZM25.25 43.3117V63.9367H19.0625V43.3117H25.25ZM25.25 29.9055H31.1167C30.4516 31.6336 28.5296 34.68 23.1875 35.0285V31.968C23.1512 31.4105 23.3572 30.8647 23.752 30.4699C24.1467 30.0752 24.6926 29.8692 25.25 29.9055ZM13.2068 29.9055H19.0625C19.6209 29.8697 20.1678 30.0767 20.5625 30.473C20.9578 30.8692 21.1628 31.4166 21.125 31.975V35.0265C15.8298 34.674 13.8856 31.6326 13.2068 29.9055ZM2.5625 37.1242H14.9375V41.2492H2.5625V37.1242ZM5.65625 62.9055V47.4367H14.9375V45.3742H5.65625V43.3117H17V63.9367H6.6875C6.118 63.9367 5.65625 63.475 5.65625 62.9055ZM38.6562 45.3742H29.375V47.4367H38.6562V62.9055C38.6562 63.475 38.1945 63.9367 37.625 63.9367H27.3125V43.3117H38.6562V45.3742Z" fill="black"/>
<path d="M62.375 58.7812V55.6875H60.3125V58.7687C60.3427 59.0517 60.244 59.3326 60.0441 59.535C59.8442 59.7375 59.5642 59.8392 59.2812 59.8125H56.1875V61.875H59.2812C60.1091 61.8992 60.9102 61.5809 61.4953 60.9953C62.0809 60.4102 62.3992 59.6091 62.375 58.7812Z" fill="black"/>
<path d="M36.5938 60.8438V56.7188H34.5312V59.8125H31.4375V61.875H35.5625C36.132 61.875 36.5938 61.4133 36.5938 60.8438Z" fill="black"/>
</g>
<defs>
<clipPath id="clip0_25286_912">
<rect width="66" height="66" fill="white" transform="translate(0.5)"/>
</clipPath>
</defs>
</svg>
