<svg width="66" height="66" viewBox="0 0 66 66" fill="none" xmlns="http://www.w3.org/2000/svg">
<path d="M62.3391 20.7392L45.8391 12.4892C45.6821 12.4101 45.5075 12.3725 45.3318 12.3798C45.1562 12.3872 44.9854 12.4393 44.8355 12.5313C44.6857 12.6232 44.5619 12.752 44.4758 12.9052C44.3897 13.0585 44.3443 13.2312 44.3438 13.407V52.5945C44.3438 52.868 44.4524 53.1303 44.6458 53.3237C44.8392 53.5171 45.1015 53.6258 45.375 53.6258H61.875C62.1485 53.6258 62.4108 53.5171 62.6042 53.3237C62.7976 53.1303 62.9062 52.868 62.9062 52.5945V21.657C62.9057 21.4666 62.8524 21.28 62.7523 21.118C62.6521 20.956 62.5091 20.8249 62.3391 20.7392Z" fill="url(#paint0_linear_25286_1718)"/>
<path d="M45.375 12.375H4.125C3.55546 12.375 3.09375 12.8367 3.09375 13.4062V52.5938C3.09375 53.1633 3.55546 53.625 4.125 53.625H45.375C45.9445 53.625 46.4062 53.1633 46.4062 52.5938V13.4062C46.4062 12.8367 45.9445 12.375 45.375 12.375Z" fill="url(#paint1_linear_25286_1718)"/>
<path d="M16.5 38.1562H9.28125C8.71171 38.1562 8.25 38.618 8.25 39.1875V47.4375C8.25 48.007 8.71171 48.4688 9.28125 48.4688H16.5C17.0695 48.4688 17.5312 48.007 17.5312 47.4375V39.1875C17.5312 38.618 17.0695 38.1562 16.5 38.1562Z" fill="#B2500D"/>
<path d="M23.7188 27.8438H25.7812V53.625H23.7188V27.8438Z" fill="#B2500D"/>
<path d="M41.25 38.1562H34.0312C33.4617 38.1562 33 38.618 33 39.1875V43.3125C33 43.882 33.4617 44.3438 34.0312 44.3438H41.25C41.8195 44.3438 42.2812 43.882 42.2812 43.3125V39.1875C42.2812 38.618 41.8195 38.1562 41.25 38.1562Z" fill="#B2500D"/>
<path d="M29.9062 46.4062H42.2812V48.4688H29.9062V46.4062Z" fill="#B2500D"/>
<path d="M29.9062 12.375H19.5938C19.3202 12.375 19.0579 12.4836 18.8645 12.677C18.6711 12.8704 18.5625 13.1327 18.5625 13.4062V27.8438C18.5634 28.0371 18.6186 28.2263 18.7218 28.3897C18.8251 28.5532 18.9722 28.6843 19.1464 28.7682C19.3206 28.852 19.5148 28.8853 19.707 28.864C19.8991 28.8428 20.0814 28.768 20.2331 28.6481L22.1719 27.1013L24.1106 28.6481C24.2935 28.7946 24.5208 28.8744 24.7552 28.8744C24.9895 28.8744 25.2168 28.7946 25.3997 28.6481L27.3281 27.1013L29.2669 28.6481C29.4186 28.768 29.6009 28.8428 29.793 28.864C29.9852 28.8853 30.1794 28.852 30.3536 28.7682C30.5278 28.6843 30.6749 28.5532 30.7782 28.3897C30.8814 28.2263 30.9366 28.0371 30.9375 27.8438V13.4062C30.9375 13.1327 30.8289 12.8704 30.6355 12.677C30.4421 12.4836 30.1798 12.375 29.9062 12.375Z" fill="url(#paint2_linear_25286_1718)"/>
<path d="M45.375 22.6875C49.9313 22.6875 53.625 18.9938 53.625 14.4375C53.625 9.88115 49.9313 6.1875 45.375 6.1875C40.8187 6.1875 37.125 9.88115 37.125 14.4375C37.125 18.9938 40.8187 22.6875 45.375 22.6875Z" fill="url(#paint3_linear_25286_1718)"/>
<path d="M34.0312 44.3438H41.25C41.5235 44.3438 41.7858 44.2351 41.9792 44.0417C42.1726 43.8483 42.2812 43.586 42.2812 43.3125V39.1875C42.2812 38.914 42.1726 38.6517 41.9792 38.4583C41.7858 38.2649 41.5235 38.1562 41.25 38.1562H34.0312C33.7577 38.1562 33.4954 38.2649 33.302 38.4583C33.1086 38.6517 33 38.914 33 39.1875V43.3125C33 43.586 33.1086 43.8483 33.302 44.0417C33.4954 44.2351 33.7577 44.3438 34.0312 44.3438ZM35.0625 40.2188H40.2188V42.2812H35.0625V40.2188Z" fill="url(#paint4_linear_25286_1718)"/>
<path d="M16.5 38.1562H9.28125C9.00775 38.1562 8.74544 38.2649 8.55205 38.4583C8.35865 38.6517 8.25 38.914 8.25 39.1875V47.4375C8.25 47.711 8.35865 47.9733 8.55205 48.1667C8.74544 48.3601 9.00775 48.4688 9.28125 48.4688H16.5C16.7735 48.4688 17.0358 48.3601 17.2292 48.1667C17.4226 47.9733 17.5312 47.711 17.5312 47.4375V39.1875C17.5312 38.914 17.4226 38.6517 17.2292 38.4583C17.0358 38.2649 16.7735 38.1562 16.5 38.1562ZM15.4688 46.4062H10.3125V40.2188H15.4688V46.4062Z" fill="url(#paint5_linear_25286_1718)"/>
<path d="M29.9062 46.4062H42.2812V48.4688H29.9062V46.4062Z" fill="url(#paint6_linear_25286_1718)"/>
<path d="M62.3391 20.7389L53.4084 16.2736C53.8161 14.1901 53.4048 12.0296 52.2602 10.2416C51.1156 8.45355 49.3258 7.17559 47.263 6.6735C45.2002 6.17142 43.0233 6.48388 41.185 7.54587C39.3467 8.60787 37.9886 10.3377 37.3931 12.3754H4.125C3.8515 12.3754 3.58919 12.4841 3.3958 12.6775C3.2024 12.8709 3.09375 13.1332 3.09375 13.4067V52.5942C3.09375 52.8677 3.2024 53.13 3.3958 53.3234C3.58919 53.5168 3.8515 53.6254 4.125 53.6254H61.875C62.1485 53.6254 62.4108 53.5168 62.6042 53.3234C62.7976 53.13 62.9062 52.8677 62.9062 52.5942V21.6567C62.9057 21.4663 62.8524 21.2797 62.7523 21.1177C62.6521 20.9557 62.5091 20.8246 62.3391 20.7389ZM45.375 8.25044C46.5988 8.25044 47.7951 8.61333 48.8126 9.29322C49.8301 9.97311 50.6232 10.9395 51.0915 12.0701C51.5598 13.2007 51.6824 14.4448 51.4436 15.6451C51.2049 16.8453 50.6156 17.9478 49.7502 18.8132C48.8849 19.6785 47.7824 20.2678 46.5821 20.5065C45.3819 20.7453 44.1378 20.6228 43.0071 20.1544C41.8765 19.6861 40.9102 18.8931 40.2303 17.8755C39.5504 16.858 39.1875 15.6617 39.1875 14.4379C39.1875 12.7969 39.8394 11.2231 40.9998 10.0627C42.1602 8.90233 43.734 8.25044 45.375 8.25044ZM44.3438 22.6158V51.5629H25.7812V28.3392L27.3281 27.1017L29.2669 28.6486C29.4178 28.7683 29.5992 28.8433 29.7906 28.8652C29.982 28.887 30.1757 28.8549 30.3497 28.7723C30.5252 28.6887 30.6735 28.5573 30.7775 28.393C30.8815 28.2288 30.937 28.0386 30.9375 27.8442V14.4379H37.125C37.1268 16.4461 37.861 18.3846 39.19 19.8901C40.5189 21.3956 42.3514 22.3647 44.3438 22.6158ZM28.875 14.4379V25.6992L27.9778 24.9773C27.7949 24.8309 27.5676 24.7511 27.3333 24.7511C27.099 24.7511 26.8717 24.8309 26.6887 24.9773L24.75 26.5242L22.8216 24.9773C22.6387 24.8309 22.4113 24.7511 22.177 24.7511C21.9427 24.7511 21.7154 24.8309 21.5325 24.9773L20.625 25.6992V14.4379H28.875ZM5.15625 14.4379H18.5625V27.8442C18.5631 28.0386 18.6185 28.2288 18.7225 28.393C18.8265 28.5573 18.9748 28.6887 19.1503 28.7723C19.3243 28.8549 19.518 28.887 19.7094 28.8652C19.9008 28.8433 20.0822 28.7683 20.2331 28.6486L22.1719 27.1017L23.7188 28.3392V51.5629H5.15625V14.4379ZM60.8438 51.5629H46.4062V22.6158C47.7322 22.4478 48.9976 21.9603 50.0933 21.195C51.1892 20.4297 52.0826 19.4097 52.6969 18.2226L60.8438 22.2961V51.5629Z" fill="url(#paint7_linear_25286_1718)"/>
<path d="M43.1887 18.0884L45.375 15.8918L47.5612 18.0884L49.0256 16.624L46.8291 14.4377L49.0256 12.2515L47.5612 10.7871L45.375 12.9837L43.1887 10.7871L41.7244 12.2515L43.9209 14.4377L41.7244 16.624L43.1887 18.0884Z" fill="url(#paint8_linear_25286_1718)"/>
<defs>
<linearGradient id="paint0_linear_25286_1718" x1="53.625" y1="12.3758" x2="53.625" y2="53.6258" gradientUnits="userSpaceOnUse">
<stop stop-color="#CE7F20"/>
<stop offset="1" stop-color="#B2500D"/>
</linearGradient>
<linearGradient id="paint1_linear_25286_1718" x1="24.75" y1="12.375" x2="24.75" y2="53.625" gradientUnits="userSpaceOnUse">
<stop stop-color="#FFC033"/>
<stop offset="1" stop-color="#EF8E2E"/>
</linearGradient>
<linearGradient id="paint2_linear_25286_1718" x1="24.75" y1="12.375" x2="24.75" y2="28.875" gradientUnits="userSpaceOnUse">
<stop stop-color="#002237"/>
<stop offset="1" stop-color="#003352"/>
</linearGradient>
<linearGradient id="paint3_linear_25286_1718" x1="45.375" y1="6.1875" x2="45.375" y2="22.6875" gradientUnits="userSpaceOnUse">
<stop stop-color="#CF1D37"/>
<stop offset="1" stop-color="#CF0018"/>
</linearGradient>
<linearGradient id="paint4_linear_25286_1718" x1="37.6406" y1="44.3438" x2="37.6406" y2="38.1562" gradientUnits="userSpaceOnUse">
<stop stop-color="#000406"/>
<stop offset="1" stop-color="#001521"/>
</linearGradient>
<linearGradient id="paint5_linear_25286_1718" x1="12.8906" y1="48.4688" x2="12.8906" y2="1.01114e-06" gradientUnits="userSpaceOnUse">
<stop stop-color="#000406"/>
<stop offset="1" stop-color="#001521"/>
</linearGradient>
<linearGradient id="paint6_linear_25286_1718" x1="36.0938" y1="48.4688" x2="36.0938" y2="46.4062" gradientUnits="userSpaceOnUse">
<stop stop-color="#000406"/>
<stop offset="1" stop-color="#001521"/>
</linearGradient>
<linearGradient id="paint7_linear_25286_1718" x1="33" y1="53.6254" x2="33" y2="6.18794" gradientUnits="userSpaceOnUse">
<stop stop-color="#000406"/>
<stop offset="1" stop-color="#001521"/>
</linearGradient>
<linearGradient id="paint8_linear_25286_1718" x1="45.375" y1="18.0884" x2="45.375" y2="10.7871" gradientUnits="userSpaceOnUse">
<stop stop-color="#000406"/>
<stop offset="1" stop-color="#001521"/>
</linearGradient>
</defs>
</svg>
