<svg width="66" height="66" viewBox="0 0 66 66" fill="none" xmlns="http://www.w3.org/2000/svg">
<g clip-path="url(#clip0_25286_935)">
<path d="M0 33C0 51.1378 14.8412 66 33.0135 66C51.1859 66 66.0271 51.1649 66.0271 33C66 14.8351 51.1588 0 33.0135 0C14.8683 0 0 14.8351 0 33Z" fill="#FFDB7A"/>
<path d="M33.7448 39.334C28.7616 39.334 24.6992 35.2733 24.6992 30.2922V23.1454C24.6992 18.1642 28.7616 14.1035 33.7448 14.1035C38.7279 14.1035 42.7903 18.1642 42.7903 23.1454V30.3193C42.7632 35.2733 38.7279 39.334 33.7448 39.334ZM33.7448 15.7278C29.6553 15.7278 26.3242 19.0576 26.3242 23.1183V30.2922C26.3242 34.38 29.6553 37.6827 33.7448 37.6827C37.8342 37.6827 41.1383 34.3529 41.1383 30.2922V23.1454C41.1383 19.0576 37.8342 15.7278 33.7448 15.7278Z" fill="#E1EFFA"/>
<path d="M14.6787 27.207V29.6976V49.5409H51.3213V29.6976V27.207H14.6787Z" fill="#E1EFFA"/>
<path d="M13.7579 34.1367V36.6273V56.4977C13.785 56.633 13.8662 56.7684 14.0287 56.9037C14.3266 57.1203 14.6787 57.0932 14.6787 57.0932H17.4411H28.6533H29.3574H48.586H51.3484C51.3484 57.0932 51.7005 57.1203 51.9984 56.9037C52.1879 56.7684 52.2421 56.633 52.2692 56.4977V36.6273V34.1367H13.7579Z" fill="white"/>
<path d="M52.1338 33.8921C52.0525 33.7838 51.7546 33.5402 51.7546 33.5402L48.586 31.2933C48.586 31.2933 48.2339 31.0496 48.2339 30.806C48.2339 30.5623 48.5589 30.2646 48.5589 30.2646C48.5589 30.2646 51.0776 27.8281 51.1859 27.7198C51.4025 27.4762 51.3484 27.2326 51.3484 27.2326C51.3484 27.2326 51.2942 26.9889 51.0776 26.8265C50.8338 26.6641 50.4276 26.6641 50.4276 26.6641H48.586H29.3574H28.6533H17.4411H15.5995C15.5995 26.6641 15.1933 26.6641 14.9495 26.8265C14.7329 26.9889 14.6787 27.2326 14.6787 27.2326C14.6787 27.2326 14.6516 27.4762 14.8412 27.7198C14.9224 27.8281 17.4682 30.2646 17.4682 30.2646C17.4682 30.2646 17.7661 30.5623 17.7661 30.806C17.739 31.0496 17.414 31.2933 17.414 31.2933L14.2454 33.5402C14.2454 33.5402 13.9475 33.7568 13.8662 33.8921C13.7579 34.0545 13.5683 34.4335 14.0287 34.7584C14.3266 34.975 14.6787 34.9479 14.6787 34.9479H17.4411H28.6533H29.3574H48.586H51.3484C51.3484 34.9479 51.7005 34.975 51.9984 34.7584C52.4046 34.4335 52.2421 34.0275 52.1338 33.8921Z" fill="#FF9046"/>
<path d="M37.1301 13.3194V5.6582H30.6574V13.3194H27.8679L33.8802 19.3563L39.9196 13.3194H37.1301Z" fill="#192E2D"/>
<path d="M22.316 19.8708V16.3516H19.3369V19.8708H18.0369L20.8264 22.6592L23.5888 19.8708H22.316Z" fill="#192E2D"/>
<path d="M49.0193 18.8693V13.834H44.7673V18.8693H42.9257L46.8798 22.8488L50.8609 18.8693H49.0193Z" fill="#192E2D"/>
<path d="M33.8531 48.6197C28.4908 48.6197 24.1305 44.2612 24.1305 38.901V31.2128C24.1305 25.8526 28.4908 21.4941 33.8531 21.4941C39.2154 21.4941 43.5757 25.8526 43.5757 31.2128V38.901C43.5757 44.2612 39.2154 48.6197 33.8531 48.6197ZM33.8531 23.3079C29.4928 23.3079 25.945 26.8543 25.945 31.2128V38.901C25.945 43.2595 29.4928 46.8059 33.8531 46.8059C38.2134 46.8059 41.7612 43.2595 41.7612 38.901V31.2128C41.7612 26.8543 38.2134 23.3079 33.8531 23.3079Z" fill="white"/>
<path d="M33.7448 40.4453L35.2072 43.3961L38.4571 43.8834L36.101 46.1844L36.6697 49.433L33.7448 47.8899L30.8199 49.433L31.3615 46.1844L29.0053 43.8834L32.2823 43.3961L33.7448 40.4453Z" fill="#FFC958"/>
</g>
<defs>
<clipPath id="clip0_25286_935">
<rect width="66" height="66" fill="white"/>
</clipPath>
</defs>
</svg>
