<svg width="66" height="66" viewBox="0 0 66 66" fill="none" xmlns="http://www.w3.org/2000/svg">
<g clip-path="url(#clip0_25286_1751)">
<path d="M64.9667 64.9656H1.03345L6.54496 19.7715H59.4552L64.9667 64.9656Z" fill="#DDDAC5"/>
<path d="M5.44269 61.6588L10.5509 19.7715H6.54496L1.03345 64.9656H64.9667L64.5633 61.6588H5.44269Z" fill="#D1CDB2"/>
<path d="M23.0795 5.44336H18.6703V19.7732H23.0795V5.44336Z" fill="#FFC552"/>
<path d="M23.0795 5.44336H18.6703V8.75019H23.0795V5.44336Z" fill="#FC9C47"/>
<path d="M47.33 5.44336H42.9208V19.7732H47.33V5.44336Z" fill="#FFC552"/>
<path d="M47.33 5.44336H42.9208V8.75019H47.33V5.44336Z" fill="#FC9C47"/>
<path d="M47.3299 5.44231H18.6703L20.8748 1.0332H45.1253L47.3299 5.44231Z" fill="#FFC552"/>
<path d="M37.4092 29.6934C33.7565 29.6934 30.7954 32.6545 30.7954 36.3072C30.7954 39.9598 33.868 42.025 37.4092 42.9209C41.2213 43.8854 44.023 45.8821 44.023 49.5347C44.023 53.1874 41.0619 56.1485 37.4092 56.1485C44.7146 56.1485 50.6368 50.2263 50.6368 42.9209C50.6368 35.6156 44.7146 29.6934 37.4092 29.6934Z" fill="#66BF00"/>
<path d="M44.023 49.535C44.023 50.1601 43.9344 50.7639 43.7724 51.3371C44.6206 50.2251 45.1253 48.837 45.1253 47.3305C45.1253 43.6778 42.3236 41.6812 38.5115 40.7167C34.9703 39.8208 31.8977 37.7557 31.8977 34.1029C31.8977 33.478 31.9862 32.874 32.1483 32.3008C31.3001 33.4129 30.7954 34.8009 30.7954 36.3074C30.7954 39.9601 33.868 42.0253 37.4092 42.9212C41.2213 43.8858 44.023 45.8823 44.023 49.535Z" fill="#58AB23"/>
<path d="M28.5909 56.1485C32.2436 56.1485 35.2047 53.1874 35.2047 49.5347C35.2047 45.8821 32.1321 43.8168 28.5909 42.9209C24.7787 41.9565 21.9771 39.96 21.9771 36.3072C21.9771 32.6545 24.9382 29.6934 28.5909 29.6934C21.2855 29.6934 15.3633 35.6156 15.3633 42.9209C15.3633 50.2263 21.2855 56.1485 28.5909 56.1485Z" fill="#66BF00"/>
<path d="M30.7954 55.0464C23.49 55.0464 17.5678 49.1242 17.5678 41.8188C17.5678 37.0771 20.0633 32.919 23.8121 30.584C18.8686 32.5002 15.3633 37.3012 15.3633 42.9212C15.3633 50.2266 21.2855 56.1488 28.5909 56.1488C30.0974 56.1488 31.4856 55.6441 32.5975 54.7959C32.0244 54.9578 31.4205 55.0464 30.7954 55.0464Z" fill="#58AB23"/>
<path d="M65.9926 64.8415L60.4811 19.6474C60.4178 19.1289 59.9775 18.7391 59.4552 18.7391H48.3633V5.44255C48.3633 5.28322 48.3254 5.12286 48.2542 4.98042L46.0496 0.571313C45.8747 0.221203 45.5168 0 45.1254 0H20.8749C20.4834 0 20.1255 0.221203 19.9506 0.571313L17.7461 4.98055C17.6748 5.12299 17.6369 5.28335 17.6369 5.44268V18.7391H6.545C6.02267 18.7391 5.58246 19.1289 5.51917 19.6474L4.84705 25.1589C4.77795 25.7253 5.1813 26.2407 5.74772 26.3098C6.31336 26.3789 6.82963 25.9756 6.89885 25.4091L7.46011 20.8059H58.5404L63.7999 63.9332H2.2006L6.36092 29.8183C6.43015 29.2519 6.0268 28.7366 5.46038 28.6675C4.89487 28.5984 4.37835 29.0015 4.30925 29.5681L0.00752051 64.8415C-0.0663428 65.4483 0.422728 66 1.03349 66H64.9667C65.5775 66 66.0666 65.4483 65.9926 64.8415ZM21.5135 2.06675H44.4868L45.658 4.40911H42.9208H39.614C39.0432 4.40911 38.5805 4.87175 38.5805 5.44255C38.5805 6.01335 39.043 6.47599 39.614 6.47599H41.8875V18.7391H24.1129V6.47599H35.2047C35.7755 6.47599 36.2382 6.01335 36.2382 5.44255C36.2382 4.87175 35.7757 4.40911 35.2047 4.40911H23.0794H20.3422L21.5135 2.06675ZM19.7036 18.7391V6.47599H22.046V18.7391H19.7036ZM43.9541 18.7391V6.47599H46.2965V18.7391H43.9541Z" fill="#EFA610"/>
<path d="M37.4092 55.1151C36.8384 55.1151 36.3758 55.5777 36.3758 56.1485C36.3758 56.7192 36.8383 57.182 37.4092 57.182C45.2727 57.182 51.6701 50.7845 51.6701 42.9211C51.6701 35.0576 45.2726 28.6602 37.4092 28.6602C33.1925 28.6602 29.762 32.0906 29.762 36.3074C29.762 39.9583 32.4569 42.7341 37.1556 43.923C41.0268 44.9025 42.9895 46.7907 42.9895 49.535C42.9895 52.6118 40.4863 55.1151 37.4092 55.1151ZM37.6628 41.9191C35.484 41.3679 31.8288 39.9057 31.8288 36.3071C31.8288 34.8608 32.3822 33.5413 33.2881 32.5489C38.7842 34.0966 43.4137 38.096 45.7422 43.3397C45.9828 43.8817 46.6523 44.1111 47.1755 43.831C47.646 43.579 47.8476 42.9886 47.6312 42.5009C45.2845 37.2157 40.8238 33.0742 35.4503 31.0827C36.0603 30.8531 36.7203 30.7268 37.4096 30.7268C44.1335 30.7268 49.6037 36.197 49.6037 42.9209C49.6037 47.1315 47.4586 50.8506 44.2038 53.0425C44.7487 51.9913 45.0567 50.7984 45.0567 49.5347C45.0564 46.9139 43.7736 43.4652 37.6628 41.9191Z" fill="#EFA610"/>
<path d="M28.5909 30.727C29.1617 30.727 29.6243 30.2644 29.6243 29.6936C29.6243 29.1228 29.1618 28.6602 28.5909 28.6602C20.7273 28.6602 14.33 35.0576 14.33 42.9211C14.33 50.7845 20.7274 57.182 28.5909 57.182C32.8075 57.182 36.2381 53.7515 36.2381 49.5347C36.2381 45.8838 33.5432 43.108 28.8444 41.9191C24.9732 40.9396 23.0105 39.0514 23.0105 36.3071C23.0105 33.2304 25.5137 30.727 28.5909 30.727ZM28.3373 43.923C30.5161 44.4742 34.1712 45.9364 34.1712 49.535C34.1712 50.9813 33.6178 52.3008 32.712 53.2932C27.2158 51.7455 22.5864 47.7463 20.2578 42.5024C20.0263 41.9808 19.4158 41.7457 18.894 41.9772C18.3725 42.2088 18.1375 42.8193 18.3688 43.341C20.7156 48.6263 25.1763 52.7678 30.5497 54.7593C29.9397 54.9889 29.2797 55.1152 28.5905 55.1152C21.8666 55.1152 16.3963 49.6449 16.3963 42.9211C16.3963 38.7105 18.5415 34.9914 21.7962 32.7995C21.2513 33.8507 20.9434 35.0436 20.9434 36.3073C20.9436 38.9283 22.2265 42.3769 28.3373 43.923Z" fill="#EFA610"/>
</g>
<defs>
<clipPath id="clip0_25286_1751">
<rect width="66" height="66" fill="white"/>
</clipPath>
</defs>
</svg>
