<svg width="66" height="66" viewBox="0 0 66 66" fill="none" xmlns="http://www.w3.org/2000/svg">
<path d="M62 20.4984V34.8984L43.8 35.0984V19.4984L51.3 16.3984L62 20.4984Z" fill="#465C6A"/>
<path d="M53.3 17.0996V34.9996L62 34.8996V20.4996L53.3 17.0996Z" fill="#3B4C56"/>
<path d="M50.1 26.0996H55.6V30.5996H50.1V26.0996Z" fill="#D5B79F"/>
<path d="M50.1 26.0996H53V30.5996H50.1V26.0996Z" fill="#C6A28A"/>
<path d="M53.1 27.7988C56.9108 27.7988 60 23.9932 60 19.2988C60 14.6044 56.9108 10.7988 53.1 10.7988C49.2892 10.7988 46.2 14.6044 46.2 19.2988C46.2 23.9932 49.2892 27.7988 53.1 27.7988Z" fill="#D5B79F"/>
<path d="M53.1 10.7988V27.7988C56.9 27.7988 60 23.9988 60 19.2988C60 14.5988 56.9 10.7988 53.1 10.7988Z" fill="#C6A28A"/>
<path d="M56 12.7989C56 12.7989 50.5 13.9989 49.3 16.2989C48.2 18.5989 49.1 21.0989 47.6 22.1989C47.6 22.1989 48.3 24.6989 49.2 26.3989C49.2 26.3989 48.2 27.2989 49.5 28.4989C49.5 28.4989 48 28.6989 47.3 28.0989C47.3 28.0989 48.6 30.6989 50.1 30.9989C50.1 30.9989 47.3 31.2989 45.8 27.9989C44.3 24.6989 43 18.1989 44.3 15.4989C45.6 12.7989 49.2 4.69893 55.5 8.19893C55.5 8.19893 57.1 7.39893 58.6 9.59893C60.1 11.7989 61.6 15.5989 61.9 18.0989C62.2 20.5989 62.1 23.9989 59.9 26.6989C57.7 29.3989 54.6 30.6989 54.6 30.6989C54.6 30.6989 57.3 28.2989 58.1 26.8989L57.3 26.2989C57.3 26.2989 58.6 24.4989 58.8 21.3989C59 18.3989 59.3 13.7989 56 12.7989Z" fill="#465C6A"/>
<path d="M61.9 18.0984C61.6 15.5984 60.1 11.6984 58.6 9.59844C57.1 7.39844 55.5 8.19844 55.5 8.19844C54.6 7.69844 53.8 7.49844 53.1 7.39844V13.7984C54.6 13.2984 56 12.8984 56 12.8984C59.3 13.8984 59 18.3984 58.8 21.4984C58.6 24.5984 57.3 26.3984 57.3 26.3984L58.1 26.9984C57.3 28.2984 54.6 30.7984 54.6 30.7984C54.6 30.7984 57.7 29.3984 59.9 26.7984C62.1 23.9984 62.2 20.4984 61.9 18.0984Z" fill="#3B4C56"/>
<path d="M65 37.6992C65.1 35.2992 63.4 33.7992 61.5 32.3992C59.6 30.9992 55.6 29.6992 55.6 29.6992L53 30.5992L50.4 29.6992C50.4 29.6992 46.5 30.9992 44.5 32.3992C42.6 33.7992 41 35.2992 41 37.6992C41.1 40.0992 41 45.4992 41 45.4992H52.9H65C65 45.4992 64.9 40.0992 65 37.6992Z" fill="#C6A28A"/>
<path d="M65 45.498H41.1C41.1 45.498 41.2 40.098 41.1 37.698C41 35.298 42.7 33.798 44.6 32.398C45.3 31.898 46.3 31.398 47.3 30.998C48.6 32.798 50.7 33.998 53.1 33.998C55.5 33.998 57.6 32.798 58.9 30.998C59.9 31.398 60.8 31.898 61.6 32.398C63.5 33.798 65.1 35.298 65.1 37.698C64.9 40.098 65 45.498 65 45.498Z" fill="#FAD22C"/>
<path d="M65 37.698C65.1 35.298 63.4 33.798 61.5 32.398C60.8 31.898 59.8 31.398 58.8 30.998C57.5 32.798 55.4 33.998 53 33.998V45.498H65C65 45.498 64.9 40.098 65 37.698Z" fill="#E0B624"/>
<path d="M22.1506 19.2199C22.4098 18.2031 22.1427 17.2571 21.554 17.1071C20.9653 16.957 20.278 17.6597 20.0188 18.6765C19.7596 19.6933 20.0267 20.6392 20.6154 20.7893C21.2041 20.9393 21.8914 20.2367 22.1506 19.2199Z" fill="#C6A28A"/>
<path d="M7.16921 18.6956C6.91003 17.6788 6.22269 16.9761 5.63401 17.1262C5.04533 17.2762 4.77823 18.2222 5.03741 19.239C5.2966 20.2558 5.98393 20.9584 6.57261 20.8084C7.16129 20.6583 7.4284 19.7124 7.16921 18.6956Z" fill="#D5B79F"/>
<path d="M10.5 25H16.3V29.8H10.5V25Z" fill="#D5B79F"/>
<path d="M10.5 25H13.4V29.8H10.5V25Z" fill="#C6A28A"/>
<path d="M13.6 26.7988C17.6317 26.7988 20.9 22.7694 20.9 17.7988C20.9 12.8283 17.6317 8.79883 13.6 8.79883C9.56837 8.79883 6.30005 12.8283 6.30005 17.7988C6.30005 22.7694 9.56837 26.7988 13.6 26.7988Z" fill="#D5B79F"/>
<path d="M13.6 8.79883V26.6988C17.6 26.6988 20.9 22.6988 20.9 17.6988C20.9 12.6988 17.6 8.79883 13.6 8.79883Z" fill="#C6A28A"/>
<path d="M26.2 37.2988C26.3 34.7988 24.5 33.0988 22.5 31.6988C20.5 30.2988 16.3 28.7988 16.3 28.7988L13.6 29.7988L13.4 29.5988L10.8 28.8988C10.8 28.8988 6.60002 30.2988 4.60002 31.7988C2.60002 33.1988 0.900024 34.8988 0.900024 37.3988C1.00002 39.8988 0.900024 45.5988 0.900024 45.5988H13.5H26.1C26.2 45.4988 26.2 39.7988 26.2 37.2988Z" fill="#45BBDD"/>
<path d="M26.2 37.2988C26.3 34.7988 24.5 33.0988 22.5 31.6988C20.5 30.2988 16.3 28.7988 16.3 28.7988L13.4 29.4988V45.3988H26.2C26.2 45.4988 26.2 39.7988 26.2 37.2988Z" fill="#15A9CB"/>
<path d="M14.4 29.5996H12.5L11.6 30.9996L12.5 32.4996H14.4L15.3 30.9996L14.4 29.5996Z" fill="#E6E6E8"/>
<path d="M15.3 30.9996L14.4 29.5996H13.4V32.4996H14.4L15.3 30.9996Z" fill="#D4D8DB"/>
<path d="M16.4 27.4004L13.4 29.6004L16.2 31.8004L17 29.1004L16.4 27.4004Z" fill="#45BBDD"/>
<path d="M10.5 27.4004L13.4 29.6004L10.7 31.8004L9.90002 29.2004L10.5 27.4004Z" fill="#15A9CB"/>
<path d="M15.2 45.5H13.4V32.5H14.4L15.2 45.5Z" fill="#E6E6E8"/>
<path d="M13.4 45.5H11.7L12.5 32.5H13.4V45.5Z" fill="#D4D8DB"/>
<path d="M21.2 12.1998C20.8 8.29975 19.4 7.39975 16.5 6.89975C13.7 6.39975 9.50002 6.19975 7.10002 8.69975C4.90002 10.8998 6.20002 18.2998 6.40002 19.6998C6.40002 19.7998 6.50002 19.8998 6.70002 19.8998H6.80002C6.90002 19.8998 7.00002 19.7998 7.00002 19.6998C7.10002 18.9998 7.50002 16.3998 7.60002 15.2998C7.70002 14.0998 7.50002 13.0998 8.50002 12.9998C9.50002 12.8998 12.4 15.5998 17.6 12.9998C17.6 12.9998 18.8 12.7998 18.8 14.0998C18.8 15.3998 20.2 17.4998 19.8 19.9998C19.8 20.1998 19.9 20.2998 20.1 20.2998C20.2 20.2998 20.3 20.1998 20.3 20.0998C20.7 19.2998 21.6 15.5998 21.2 12.1998Z" fill="#465C6A"/>
<path d="M21.2 12.1996C20.8 8.29961 19.4 7.39961 16.5 6.89961C15.6 6.69961 14.6 6.59961 13.6 6.59961V14.0996C14.8 14.0996 16.2 13.7996 17.8 12.9996C17.8 12.9996 19 12.7996 19 14.0996C19 15.3996 20.4 17.4996 20 19.9996C20 20.1996 20.1 20.2996 20.3 20.2996C20.4 20.2996 20.5 20.1996 20.5 20.0996C20.7 19.2996 21.6 15.5996 21.2 12.1996Z" fill="#3B4C56"/>
<path d="M42.9504 26.5178C43.2778 25.2334 42.9792 24.0484 42.2835 23.8711C41.5878 23.6937 40.7584 24.5912 40.431 25.8756C40.1036 27.16 40.4022 28.3449 41.0979 28.5223C41.7936 28.6996 42.623 27.8022 42.9504 26.5178Z" fill="#C6A28A"/>
<path d="M24.2235 25.8603C23.8961 24.5759 23.0668 23.6785 22.371 23.8558C21.6753 24.0332 21.3767 25.2181 21.7041 26.5025C22.0315 27.7869 22.8609 28.6844 23.5566 28.507C24.2524 28.3297 24.5509 27.1447 24.2235 25.8603Z" fill="#D5B79F"/>
<path d="M28.5 33.8008H35.8V39.8008H28.5V33.8008Z" fill="#D5B79F"/>
<path d="M28.5 33.8008H32.1V39.8008H28.5V33.8008Z" fill="#C6A28A"/>
<path d="M32.4001 35.9C37.4258 35.9 41.5 30.8856 41.5 24.7C41.5 18.5144 37.4258 13.5 32.4001 13.5C27.3743 13.5 23.3 18.5144 23.3 24.7C23.3 30.8856 27.3743 35.9 32.4001 35.9Z" fill="#D5B79F"/>
<path d="M32.4 13.5V35.9C37.4 35.9 41.5 30.9 41.5 24.7C41.5 18.5 37.4 13.5 32.4 13.5Z" fill="#C6A28A"/>
<path d="M48.2 49.1C48.3 46 46.1 43.9 43.6 42.1C41.1 40.3 35.9 38.5 35.9 38.5L32.5 39.7L32.3 39.4L29 38.6C29 38.6 23.8 40.4 21.3 42.2C18.8 44 16.6 46.1 16.7 49.2C16.8 52.3 16.7 59.5 16.7 59.5H32.5H48.3C48.2 59.4 48.1 52.2 48.2 49.1Z" fill="#D4D8DB"/>
<path d="M48.2001 49.1C48.3001 46 46.1 43.9 43.6 42.1C41.1 40.3 35.9001 38.5 35.9001 38.5L32.3 39.4V59.3H48.3C48.2 59.4 48.1 52.2 48.2001 49.1Z" fill="#E6E6E8"/>
<path d="M48.2 59.4008H32.2C36.1 49.2008 36.4 40.9008 36.4 38.8008C36.8 39.0008 37.5 39.2008 38.3 39.5008C40 40.2008 42.2 41.2008 43.5 42.1008C46 43.9008 48.2 46.0008 48.1 49.1008C48.1 52.2008 48.2 59.4008 48.2 59.4008Z" fill="#D4D8DB"/>
<path d="M33.3 39.5H31L29.9 41.3L31 43.1H33.3L34.5 41.3L33.3 39.5Z" fill="#E8664A"/>
<path d="M34.5 41.3L33.3 39.5H32.2V43.1H33.3L34.5 41.3Z" fill="#D95239"/>
<path d="M35.8 36.8008L32.2 39.4008L35.6 42.2008L36.6 38.9008L35.8 36.8008Z" fill="#B5BABE"/>
<path d="M28.5 36.8008L32.2 39.4008L28.7 42.2008L27.7 39.0008L28.5 36.8008Z" fill="#E6E6E8"/>
<path d="M34.3 59.3996H32.2V43.0996H33.3L34.3 59.3996Z" fill="#E8664A"/>
<path d="M32.2 59.3996H30L31 43.0996H32.2V59.3996Z" fill="#D95239"/>
<path d="M32.1 59.4004H16.6C16.6 59.4004 16.7 52.3004 16.6 49.1004C16.5 46.0004 18.7 43.9004 21.2 42.1004C22.5 41.2004 24.5 40.3004 26.1 39.6004C26.8 39.3004 27.5 39.1004 28 38.9004C28 41.2004 28.3 49.4004 32.1 59.4004C32.1 59.3004 32.1 59.3004 32.1 59.4004Z" fill="#3B4C56"/>
<path d="M48.2 59.4008H32.2C36.1 49.2008 36.4 40.9008 36.4 38.8008C36.8 39.0008 37.5 39.2008 38.3 39.5008C40 40.2008 42.2 41.2008 43.5 42.1008C46 43.9008 48.2 46.0008 48.1 49.1008C48.1 52.2008 48.2 59.4008 48.2 59.4008Z" fill="#465C6A"/>
<path d="M38.1 46.7008L38.8 49.0008C36.7 55.6008 32.5 59.2008 32.2 59.4008C36.1 49.2008 36.4 40.9008 36.4 38.8008C36.4 38.5008 36.4 38.3008 36.4 38.3008L38.3 39.5008L39.3 45.1008L38.1 46.7008Z" fill="#3B4C56"/>
<path d="M32.1 59.4008C31.7 59.0008 28 55.4008 26 49.0008L26.7 46.7008L25.4 45.1008L26.1 39.7008L28 38.3008V39.0008C28 41.2008 28.3 49.4008 32.1 59.4008C32.1 59.3008 32.1 59.3008 32.1 59.4008Z" fill="#465C6A"/>
<path d="M40.8 17.3994C40.8 17.3994 42.4 15.2994 37.8 12.8994C33.1 10.5994 27.3 12.2994 24.8 14.6994C22.3 17.0994 22.5 23.5994 23 25.1994C23.3 26.3994 23.7 27.5994 23.9 28.1994C24 28.3994 24.1 28.4994 24.3 28.4994C24.6 28.4994 24.8 28.2994 24.7 27.9994C24.6 26.7994 24.4 23.3994 24.6 21.8994C24.9 20.0994 27.4 17.8994 29.6 18.0994C31.8 18.2994 35.3 18.6994 37.3 17.7994C37.3 17.7994 38.5 19.4994 39.1 21.7994C39.6 23.5994 39.4 26.8994 39.3 28.0994C39.3 28.3994 39.5 28.5994 39.7 28.5994H40C40.2 28.5994 40.3 28.4994 40.4 28.2994C41 26.6994 43.5 19.1994 40.8 17.3994Z" fill="#465C6A"/>
<path d="M40.8 17.3996C40.8 17.3996 42.4 15.2996 37.8 12.8996C36 11.9996 34.1 11.6996 32.3 11.7996V18.1996C34.1 18.2996 36.1001 18.2996 37.4001 17.6996C37.4001 17.6996 38.6001 19.3996 39.2001 21.6996C39.7001 23.4996 39.5001 26.7996 39.4001 27.9996C39.4001 28.2996 39.6 28.4996 39.8 28.4996H40C40.2 28.4996 40.3001 28.3996 40.4001 28.1996C41.0001 26.6996 43.5 19.1996 40.8 17.3996Z" fill="#3B4C56"/>
</svg>
