<svg width="66" height="66" viewBox="0 0 66 66" fill="none" xmlns="http://www.w3.org/2000/svg">
<path d="M64.9688 42.2812V48.4688H62.9062H55.6875V42.2812H63.9375H64.9688Z" fill="#8D272D"/>
<path d="M64.9688 46.4062V48.4688H62.9062H55.6875V46.4062H63.9375H64.9688Z" fill="#7B242C"/>
<path d="M63.9375 38.1567L62.9062 39.188C62.9062 39.188 63.9375 39.188 63.9375 42.2817H53.625V39.188C53.625 39.188 57.75 36.0942 61.875 36.0942C62.1474 36.0884 62.4182 36.1378 62.6711 36.2395C62.9239 36.3411 63.1536 36.4928 63.3462 36.6855C63.5389 36.8781 63.6906 37.1078 63.7922 37.3606C63.8939 37.6135 63.9433 37.8843 63.9375 38.1567Z" fill="#F87339"/>
<path d="M62.9062 48.4688V64.9688H53.625V48.4688H55.6875H62.9062Z" fill="#D94852"/>
<path d="M55.6875 42.2812V48.4688H53.625H49.5H47.4375V42.2812H49.5H53.625H55.6875Z" fill="#FEC076"/>
<path d="M55.6875 46.4062V48.4688H53.625H49.5H47.4375V46.4062H49.5H53.625H55.6875Z" fill="#FDAB62"/>
<path d="M49.5 48.4688H53.625V64.9688H49.5V48.4688Z" fill="#FA984C"/>
<path d="M53.625 39.1875V42.2812H49.5V39.1875C49.5016 38.641 49.7195 38.1173 50.1059 37.7309C50.4923 37.3445 51.016 37.1266 51.5625 37.125C52.1083 37.129 52.6305 37.3476 53.0164 37.7336C53.4024 38.1195 53.621 38.6417 53.625 39.1875Z" fill="#FA984C"/>
<path d="M49.5 48.4688V64.9688H40.2188V52.2947V48.4688H47.4375H49.5Z" fill="#D94852"/>
<path d="M46.4062 62.9062C45.3122 62.9062 44.263 62.4717 43.4894 61.6981C42.7158 60.9245 42.2812 59.8753 42.2812 58.7812V48.4688H40.2188V64.9688H49.5V62.9062H46.4062Z" fill="#A73A4B"/>
<path d="M49.5 39.188V42.2817H39.1875C39.1672 41.5938 39.2435 40.9065 39.4144 40.2398C39.7134 39.188 40.2188 39.188 40.2188 39.188L39.1875 38.1567C39.1817 37.8843 39.2311 37.6135 39.3328 37.3606C39.4344 37.1078 39.5861 36.8781 39.7788 36.6855C39.9714 36.4928 40.2011 36.3411 40.454 36.2395C40.7068 36.1378 40.9776 36.0884 41.25 36.0942C45.375 36.0942 49.5 39.188 49.5 39.188Z" fill="#F87339"/>
<path d="M47.4375 42.2812V48.4688H40.2188H38.1562V46.4578V42.2812H39.1875H47.4375Z" fill="#8D272D"/>
<path d="M47.4375 46.4062V48.4688H45.375H38.1562V46.4062H46.4062H47.4375Z" fill="#7B242C"/>
<path d="M40.2188 48.4688H49.5V50.5312H40.2188V48.4688Z" fill="#A73A4B"/>
<path d="M53.625 48.4688H62.9062V50.5312H53.625V48.4688Z" fill="#A73A4B"/>
<path d="M53.625 62.9062H62.9062V64.9688H53.625V62.9062Z" fill="#A73A4B"/>
<path d="M49.5 48.4688H53.625V50.5312H49.5V48.4688Z" fill="#F87339"/>
<path d="M49.5 62.9062H53.625V64.9688H49.5V62.9062Z" fill="#F87339"/>
<path d="M45.375 6.18751C46.0745 6.18641 46.7629 6.36324 47.3753 6.70137C47.9877 7.0395 48.5041 7.52782 48.8758 8.12042C49.2476 8.71303 49.4625 9.39044 49.5004 10.089C49.5383 10.7875 49.398 11.4842 49.0925 12.1135C48.7871 12.7429 48.3266 13.2842 47.7544 13.6866C47.1822 14.0891 46.517 14.3394 45.8214 14.414C45.1259 14.4886 44.4228 14.3851 43.7782 14.1132C43.1337 13.8413 42.5688 13.4099 42.1369 12.8597C45.375 11.9728 45.375 10.3125 45.375 10.3125C43.9725 10.3189 42.5978 9.92155 41.415 9.16782C41.663 8.30907 42.1833 7.55413 42.8975 7.01663C43.6117 6.47913 44.4811 6.18815 45.375 6.18751Z" fill="#F2F6FC"/>
<path d="M44.1994 12.8605C47.4375 11.9737 47.4375 10.3134 47.4375 10.3134C46.035 10.3198 44.6603 9.92241 43.4775 9.16867C43.6777 8.48262 44.053 7.86048 44.5665 7.36342C45.08 6.86637 45.714 6.51152 46.4062 6.33377C45.8924 6.19191 45.3556 6.15273 44.8265 6.21845C44.2975 6.28417 43.7866 6.45351 43.3231 6.71679C42.8595 6.98007 42.4524 7.33213 42.125 7.75284C41.7976 8.17355 41.5564 8.65466 41.415 9.16867C42.5978 9.92241 43.9725 10.3198 45.375 10.3134C45.375 10.3134 45.375 11.9737 42.1369 12.8605C42.6238 13.496 43.289 13.9719 44.0476 14.2275C44.8062 14.4832 45.6237 14.5071 46.3959 14.2961C45.5266 14.0703 44.7551 13.5661 44.1994 12.8605Z" fill="#CDD2E0"/>
<path d="M37.62 13.3959C37.9401 14.4012 38.1205 15.4456 38.1562 16.5H7.21875C7.21875 16.5 7.21875 1.03125 22.6875 1.03125C34.7531 1.03125 37.4034 6.67219 41.415 9.16781C42.5978 9.92154 43.9725 10.3189 45.375 10.3125C45.375 10.3125 45.375 11.9728 42.1369 12.8597C40.6601 13.2293 39.1423 13.4094 37.62 13.3959Z" fill="#D94852"/>
<path d="M24.3313 1.07972C23.7971 1.05497 23.2629 1.03125 22.6875 1.03125C7.21875 1.03125 7.21875 16.5 7.21875 16.5H10.3125C10.3125 16.5 10.3125 2.01609 24.3313 1.07972Z" fill="#A73A4B"/>
<path d="M39.1875 17.5312V23.7188C39.1875 23.9923 39.0788 24.2546 38.8855 24.448C38.6921 24.6414 38.4298 24.75 38.1562 24.75H7.21875C6.94525 24.75 6.68294 24.6414 6.48955 24.448C6.29615 24.2546 6.1875 23.9923 6.1875 23.7188V17.5312C6.1875 17.2577 6.29615 16.9954 6.48955 16.802C6.68294 16.6086 6.94525 16.5 7.21875 16.5H38.1562C38.4298 16.5 38.6921 16.6086 38.8855 16.802C39.0788 16.9954 39.1875 17.2577 39.1875 17.5312Z" fill="#F2F6FC"/>
<path d="M14.4375 22.6875H9.28125C9.00775 22.6875 8.74544 22.5789 8.55205 22.3855C8.35865 22.1921 8.25 21.9298 8.25 21.6562V16.5H7.21875C6.94525 16.5 6.68294 16.6086 6.48955 16.802C6.29615 16.9954 6.1875 17.2577 6.1875 17.5312V23.7188C6.1875 23.9923 6.29615 24.2546 6.48955 24.448C6.68294 24.6414 6.94525 24.75 7.21875 24.75H38.1562C38.4298 24.75 38.6921 24.6414 38.8855 24.448C39.0788 24.2546 39.1875 23.9923 39.1875 23.7188V22.6875H14.4375Z" fill="#CDD2E0"/>
<path d="M45.375 10.3116C45.375 10.3116 45.375 11.9719 42.1369 12.8588C40.6601 13.2283 39.1423 13.4085 37.62 13.395C36.7641 10.7035 34.5572 7.21784 28.875 7.21784C28.875 7.21784 31.8759 5.72253 40.425 8.47596C40.755 8.72346 41.0747 8.96065 41.415 9.1669C42.5978 9.92063 43.9725 10.318 45.375 10.3116Z" fill="#A73A4B"/>
<path d="M12.375 24.75V33H10.3125C9.76599 32.9984 9.24234 32.7805 8.8559 32.3941C8.46945 32.0077 8.25163 31.484 8.25 30.9375V24.75H12.375Z" fill="#FAA68E"/>
<path d="M37.125 24.75V30.9375C37.1234 31.484 36.9055 32.0077 36.5191 32.3941C36.1327 32.7805 35.609 32.9984 35.0625 33H33V24.75H37.125Z" fill="#FAA68E"/>
<path d="M26.8125 45.375V48.4688C26.8125 48.4688 26.8125 52.5938 22.6875 52.5938C18.5625 52.5938 18.5625 48.4688 18.5625 48.4688V45.375H26.8125Z" fill="#FAA68E"/>
<path d="M18.5625 45.375H26.8125V47.4375H18.5625V45.375Z" fill="#E09380"/>
<path d="M33 24.75V39.1875C33 40.8285 32.3481 42.4023 31.1877 43.5627C30.0273 44.7231 28.4535 45.375 26.8125 45.375H18.5625C16.9215 45.375 15.3477 44.7231 14.1873 43.5627C13.0269 42.4023 12.375 40.8285 12.375 39.1875V24.75H33ZM27.8438 36.0938H17.5312C17.5312 37.4613 18.0745 38.7728 19.0415 39.7398C20.0085 40.7068 21.32 41.25 22.6875 41.25C24.055 41.25 25.3665 40.7068 26.3335 39.7398C27.3005 38.7728 27.8438 37.4613 27.8438 36.0938Z" fill="#FFCDBE"/>
<path d="M26.8125 48.4688L30.9375 49.6444C30.9066 50.6653 30.5869 56.7188 26.8125 56.7188C22.6875 56.7188 22.6875 52.5938 22.6875 52.5938C26.8125 52.5938 26.8125 48.4688 26.8125 48.4688Z" fill="#F2F6FC"/>
<path d="M22.6875 52.5938C22.6875 52.5938 22.6875 56.7188 18.5625 56.7188C14.7881 56.7188 14.4684 50.6653 14.4375 49.6444L18.5625 48.4688C18.5625 48.4688 18.5625 52.5938 22.6875 52.5938Z" fill="#F2F6FC"/>
<path d="M22.6875 52.5939C22.6875 52.5939 22.6875 56.7189 26.8125 56.7189C30.5869 56.7189 30.9066 50.6655 30.9375 49.6445L40.2188 52.2948V64.9689H22.6875V52.5939Z" fill="#FA984C"/>
<path d="M38.1562 51.7051V60.843C38.1562 61.39 37.939 61.9146 37.5522 62.3014C37.1654 62.6882 36.6408 62.9055 36.0938 62.9055H22.6875V64.968H40.2188V52.2939L38.1562 51.7051Z" fill="#F87339"/>
<path d="M22.6875 52.5939V64.9689H1.03125C1.03125 58.7814 4.125 52.5939 4.125 52.5939L14.4375 49.6445C14.4684 50.6655 14.7881 56.7189 18.5625 56.7189C22.6875 56.7189 22.6875 52.5939 22.6875 52.5939Z" fill="#FEC076"/>
<path d="M1.03125 64.9688H22.6875V62.9062H1.14366C1.07152 63.5914 1.034 64.2798 1.03125 64.9688Z" fill="#FDAB62"/>
<path d="M12.375 24.75H33V26.8125H12.375V24.75Z" fill="#FFBEAA"/>
<path d="M27.8438 36.0938C27.8477 36.9994 27.6091 37.8896 27.1528 38.6719C26.7002 39.4557 26.0493 40.1065 25.2655 40.559C24.4817 41.0115 23.5926 41.2498 22.6875 41.2498C21.7824 41.2498 20.8933 41.0115 20.1095 40.559C19.3257 40.1065 18.6748 39.4557 18.2222 38.6719C17.7659 37.8896 17.5273 36.9994 17.5313 36.0938H27.8438Z" fill="#8D272D"/>
<path d="M22.6875 41.25C25.1536 41.25 27.1528 40.0957 27.1528 38.6719C27.1528 37.248 25.1536 36.0938 22.6875 36.0938C20.2214 36.0938 18.2222 37.248 18.2222 38.6719C18.2222 40.0957 20.2214 41.25 22.6875 41.25Z" fill="#D94852"/>
<path d="M17.5312 29.9062C17.8048 29.9062 18.0671 30.0149 18.2605 30.2083C18.4539 30.4017 18.5625 30.664 18.5625 30.9375H20.625C20.625 30.117 20.2991 29.3301 19.7189 28.7499C19.1387 28.1697 18.3518 27.8438 17.5312 27.8438C16.7107 27.8438 15.9238 28.1697 15.3436 28.7499C14.7634 29.3301 14.4375 30.117 14.4375 30.9375H16.5C16.5 30.664 16.6086 30.4017 16.802 30.2083C16.9954 30.0149 17.2577 29.9062 17.5312 29.9062Z" fill="#646977"/>
<path d="M27.8438 29.9062C28.1173 29.9062 28.3796 30.0149 28.573 30.2083C28.7664 30.4017 28.875 30.664 28.875 30.9375H30.9375C30.9375 30.117 30.6116 29.3301 30.0314 28.7499C29.4512 28.1697 28.6643 27.8438 27.8438 27.8438C27.0232 27.8438 26.2363 28.1697 25.6561 28.7499C25.0759 29.3301 24.75 30.117 24.75 30.9375H26.8125C26.8125 30.664 26.9211 30.4017 27.1145 30.2083C27.3079 30.0149 27.5702 29.9062 27.8438 29.9062Z" fill="#646977"/>
<path d="M46.4062 20.625H48.4688V25.7812H46.4062V20.625Z" fill="#7FBFDA"/>
<path d="M46.4062 27.8438H48.4688V33H46.4062V27.8438Z" fill="#7FBFDA"/>
<path d="M48.4688 25.7812H53.625V27.8438H48.4688V25.7812Z" fill="#7FBFDA"/>
<path d="M41.25 25.7812H46.4062V27.8438H41.25V25.7812Z" fill="#7FBFDA"/>
<path d="M48.763 24.0234L50.8252 21.9612L52.2836 23.4197L50.2214 25.4818L48.763 24.0234Z" fill="#7FBFDA"/>
<path d="M42.5755 30.209L44.6377 28.1468L46.0961 29.6052L44.0339 31.6674L42.5755 30.209Z" fill="#7FBFDA"/>
<path d="M48.763 29.6074L50.2214 28.149L52.2836 30.2112L50.8252 31.6696L48.763 29.6074Z" fill="#7FBFDA"/>
<path d="M42.5765 23.4199L44.0349 21.9615L46.0971 24.0237L44.6387 25.4821L42.5765 23.4199Z" fill="#7FBFDA"/>
<path d="M57.75 1.03125H59.8125V6.1875H57.75V1.03125Z" fill="#7FBFDA"/>
<path d="M57.75 8.25H59.8125V13.4062H57.75V8.25Z" fill="#7FBFDA"/>
<path d="M59.8125 6.1875H64.9688V8.25H59.8125V6.1875Z" fill="#7FBFDA"/>
<path d="M52.5938 6.1875H57.75V8.25H52.5938V6.1875Z" fill="#7FBFDA"/>
<path d="M60.1077 4.43359L62.1699 2.3714L63.6283 3.82981L61.5662 5.892L60.1077 4.43359Z" fill="#7FBFDA"/>
<path d="M53.9202 10.6191L55.9824 8.55695L57.4408 10.0154L55.3787 12.0775L53.9202 10.6191Z" fill="#7FBFDA"/>
<path d="M60.1077 10.0156L61.5662 8.55722L63.6283 10.6194L62.1699 12.0778L60.1077 10.0156Z" fill="#7FBFDA"/>
<path d="M53.9213 3.82812L55.3797 2.36972L57.4419 4.43191L55.9835 5.89031L53.9213 3.82812Z" fill="#7FBFDA"/>
<path d="M57.75 20.625H59.8125V22.6875H57.75V20.625Z" fill="#F87339"/>
<path d="M61.875 27.8438H63.9375V29.9062H61.875V27.8438Z" fill="#F87339"/>
<path d="M8.25 44.3438H10.3125V46.4062H8.25V44.3438Z" fill="#F87339"/>
<path d="M3.09375 36.0938H5.15625V38.1562H3.09375V36.0938Z" fill="#F87339"/>
<path d="M50.5312 16.5H52.5938V18.5625H50.5312V16.5Z" fill="#F87339"/>
</svg>
