<svg width="67" height="66" viewBox="0 0 67 66" fill="none" xmlns="http://www.w3.org/2000/svg">
<g clip-path="url(#clip0_25286_1234)">
<path d="M62.2074 16.714C62.1958 16.6985 62.1855 16.6818 62.1765 16.665C62.17 16.6521 62.1636 16.6392 62.1571 16.6315C61.8747 17.6495 60.6993 19.6293 58.9792 22.1701C46.1752 41.0844 17.9116 40.2224 6.43742 20.4731C5.49679 18.8542 4.92071 17.5307 4.84285 16.6315C4.8364 16.6392 4.82996 16.6521 4.82351 16.665C4.81062 16.6882 4.79644 16.7114 4.78098 16.7346C10.4529 6.7418 21.1895 0 33.5 0C45.8028 0 56.533 6.73277 62.2074 16.714Z" fill="#FFDC00"/>
<path d="M66.5 32.9994C66.5 41.8952 62.9796 49.9699 57.2548 55.9047L9.74516 55.906C4.02172 49.9699 0.5 41.8965 0.5 32.9994C0.5 27.0852 2.0559 21.5345 4.78098 16.734C4.79645 16.7108 4.81063 16.6876 4.82352 16.6644C4.82996 16.6515 4.83641 16.6386 4.84285 16.6309C8.11578 22.353 13.0529 27.0001 18.9993 29.9108C19.6735 30.2408 20.3657 30.5502 21.0657 30.835C24.8078 32.3587 28.8929 33.2172 33.17 33.2572H33.83C38.1071 33.2172 42.1921 32.3587 45.9343 30.835C46.6343 30.5502 47.3265 30.2408 48.0007 29.9108C53.9407 27.0001 58.8842 22.353 62.1571 16.6309C62.1636 16.6386 62.17 16.6515 62.1765 16.6644C62.1855 16.6811 62.1958 16.6979 62.2074 16.7134C64.9389 21.519 66.5 27.0774 66.5 32.9994Z" fill="#FFBF03"/>
<path d="M33.5 16.6309L42.4523 38.2785L33.5 57.887L9.74527 39.8016V34.8267L33.5 16.6309Z" fill="#6170DB"/>
<path d="M57.2547 34.8267V39.8016L33.5 57.887V16.6309L57.2547 34.8267Z" fill="#465DD1"/>
<path d="M33.5 24.9414L40.3863 38.08L33.5 55.4698H14.7569V24.9414H33.5Z" fill="#E4EEF9"/>
<path d="M33.5 24.9414H52.2431V55.4698H33.5V24.9414Z" fill="#C7E1F9"/>
<path d="M36.6775 54.3014L33.5 55.5957L25.134 59.2592H13.5144C12.1737 58.2382 10.9143 57.1155 9.74515 55.905V39.8008L21.5233 44.9364L33.5 52.8989L36.6775 54.3014Z" fill="#95A1F4"/>
<path d="M57.2548 39.8008V55.9038C56.087 57.1155 54.8263 58.237 53.4856 59.2592H41.866L33.5 55.5957V52.8989L45.4767 44.9364L57.2548 39.8008Z" fill="#7B83E8"/>
<path d="M39.4812 56.5275L33.5 65.9995C27.9996 65.9995 22.815 64.6537 18.2543 62.2728C16.5849 61.4027 14.9994 60.3934 13.5144 59.2603L21.5233 44.9375L33.5 50.1595L39.4812 56.5275Z" fill="#7B83E8"/>
<path d="M53.4856 59.2603C47.9388 63.4884 41.0127 65.9995 33.5 65.9995V50.1595L45.4767 44.9375L53.4856 59.2603Z" fill="#6170DB"/>
<path d="M33.4999 35.9229L36.6775 38.9171L33.4999 41.6848C33.0513 41.6848 32.6027 41.8351 32.2314 42.1365C31.4925 42.7378 30.55 43.0981 29.5232 43.0981H25.4753C24.1473 43.0981 22.8985 42.6611 21.8871 41.9051C20.8763 41.1502 20.1037 40.0763 19.7269 38.803H21.2046C23.1261 38.803 24.9119 37.8573 26.0344 36.2979C26.8137 35.2136 28.0859 34.5078 29.5232 34.5078C30.5493 34.5078 31.4919 34.8686 32.2308 35.4701C32.602 35.7719 33.0506 35.9229 33.4999 35.9229Z" fill="#C1674C"/>
<path d="M47.2727 38.803C46.5203 41.3498 44.1804 43.0981 41.5244 43.0981H37.4766C36.4499 43.0981 35.5073 42.738 34.7684 42.1365C34.3978 41.8352 33.9492 41.6848 33.5 41.6848V35.9229C33.9492 35.9229 34.3978 35.772 34.7691 35.4701C35.508 34.8688 36.4505 34.5078 37.4766 34.5078C38.9139 34.5078 40.186 35.2136 40.9655 36.2979C42.0879 37.8573 43.8737 38.803 45.7952 38.803H47.2727Z" fill="#99544E"/>
<path d="M45.4947 19.5449L53.0747 20.538L53.7496 27.7998L47.1122 34.4372L46.2866 33.6116C45.8308 33.1557 45.0911 33.1557 44.6353 33.6116L43.8097 34.4372L42.1597 32.7872L42.9853 31.9616C43.2132 31.7337 43.3277 31.4348 43.3277 31.1359C43.3277 30.8371 43.2131 30.5382 42.9852 30.3103C42.5294 29.8545 41.7897 29.8546 41.3339 30.3103L40.5083 31.1359L38.857 29.4846L39.6826 28.659C40.1384 28.2032 40.1384 27.4635 39.6826 27.0077L38.857 26.182L45.4947 19.5449Z" fill="#CF3086"/>
<path d="M55.919 16.2087C55.919 16.5075 56.0336 16.8064 56.2614 17.0343C56.7172 17.4902 57.4568 17.4902 57.9126 17.0343L58.7383 16.2087L60.3883 17.8587L59.5626 18.6843C59.1068 19.1402 59.1068 19.8798 59.5626 20.3355L60.3883 21.1611L53.7497 27.7997L45.4947 19.5448L52.1333 12.9062L52.9589 13.7319C53.4147 14.1877 54.1544 14.1877 54.6102 13.7319L55.4358 12.9062L57.0871 14.5575L56.2615 15.3832C56.0335 15.611 55.919 15.9098 55.919 16.2087Z" fill="#9E1A60"/>
<path d="M47.1908 27.7556L48.3646 27.7207L48.2866 28.8515C48.2013 28.9368 48.1445 29.0508 48.1313 29.1786C48.1051 29.4336 47.9944 29.6814 47.7991 29.8767L47.0291 30.6466C46.7766 30.8991 46.4559 31.0536 46.1197 31.1022C45.7839 31.1509 45.4326 31.0935 45.1187 30.923L45.3997 30.642C45.7652 30.2765 45.925 29.757 45.8419 29.247C45.7839 28.8925 45.8916 28.5163 46.1649 28.2429C46.3601 28.0477 46.608 27.9371 46.8629 27.911C46.9913 27.8977 47.1054 27.8411 47.1908 27.7556Z" fill="#E4EEF9"/>
<path d="M50.3582 25.6836C50.6996 26.3111 50.5871 27.0887 50.0819 27.5939L49.3119 28.3638C49.1166 28.5591 48.8689 28.6698 48.6139 28.696C48.4861 28.7092 48.3722 28.7659 48.2867 28.8513L47.1908 27.7554C47.2762 27.6699 47.3328 27.5558 47.346 27.4278C47.3721 27.1728 47.4827 26.925 47.6779 26.7298C47.9513 26.4564 48.3275 26.3488 48.682 26.4068C49.192 26.4899 49.7115 26.3301 50.077 25.9646L50.3582 25.6836Z" fill="#C7E1F9"/>
<path d="M51.4024 22.2051L55.1545 18.453L56.148 19.4465L52.3959 23.1986L51.4024 22.2051Z" fill="#FFDC00"/>
<path d="M53.3893 24.1934L57.1414 20.4413L58.1348 21.4347L54.3827 25.1868L53.3893 24.1934Z" fill="#FFDC00"/>
<path d="M14.7842 17.3281L18.0668 24.9594L14.7842 32.5906C10.5696 32.5906 7.15298 29.174 7.15298 24.9594C7.15298 20.7448 10.5696 17.3281 14.7842 17.3281Z" fill="#374E74"/>
<path d="M22.4161 24.9594C22.4161 29.174 18.9995 32.5906 14.7842 32.5906V17.3281C18.9993 17.3281 22.4161 20.7448 22.4161 24.9594Z" fill="#2A3860"/>
<path d="M14.7842 23.9141L15.1351 24.4658L14.7842 26.4574L13.3005 29.9923L12.393 29.6116L14.7842 23.9141Z" fill="#FFDC00"/>
<path d="M12.3464 24.5435C11.1954 24.5435 10.2589 23.4911 10.2589 22.1975C10.2589 20.904 11.1952 19.8516 12.3464 19.8516C13.4974 19.8516 14.4337 20.904 14.4337 22.1975C14.4337 23.4911 13.4974 24.5435 12.3464 24.5435ZM12.3464 20.8358C11.738 20.8358 11.2432 21.4466 11.2432 22.1975C11.2432 22.9484 11.738 23.5593 12.3464 23.5593C12.9547 23.5593 13.4495 22.9484 13.4495 22.1975C13.4495 21.4466 12.9547 20.8358 12.3464 20.8358Z" fill="#FFDC00"/>
<path d="M17.2225 30.4263C16.0715 30.4263 15.135 29.3739 15.135 28.0803C15.135 26.7868 16.0714 25.7344 17.2225 25.7344C18.3736 25.7344 19.31 26.7868 19.31 28.0803C19.31 29.3739 18.3735 30.4263 17.2225 30.4263ZM17.2225 26.7186C16.6142 26.7186 16.1193 27.3295 16.1193 28.0803C16.1193 28.8312 16.6142 29.4421 17.2225 29.4421C17.8308 29.4421 18.3257 28.8312 18.3257 28.0803C18.3258 27.3295 17.8308 26.7186 17.2225 26.7186Z" fill="#FFBF03"/>
<path d="M17.2921 20.4821L14.7842 26.4578V23.9145L16.3846 20.1016L17.2921 20.4821Z" fill="#FFBF03"/>
</g>
<defs>
<clipPath id="clip0_25286_1234">
<rect width="66" height="66" fill="white" transform="translate(0.5)"/>
</clipPath>
</defs>
</svg>
