<svg width="66" height="66" viewBox="0 0 66 66" fill="none" xmlns="http://www.w3.org/2000/svg">
<path d="M40.9397 22.6731C40.783 22.1028 40.7812 22.0567 40.7794 22.0117L41.3905 21.9668C41.4001 22.0261 41.4504 22.2166 41.531 22.5102L40.9397 22.6731Z" fill="#BDC8FF"/>
<path d="M44.66 35.3684L44.2832 34.1002L44.8715 33.9252L45.2483 35.1935L44.66 35.3684ZM43.9076 32.8325L43.5316 31.5636L44.1199 31.3899L44.4959 32.6576L43.9076 32.8325ZM43.1566 30.2954L42.7822 29.0259L43.3705 28.8522L43.7449 30.1216L43.1566 30.2954ZM42.4095 27.7583L42.0372 26.4888L42.6261 26.3163L42.9978 27.5845L42.4095 27.7583ZM41.6667 25.2181L41.2994 23.9463L41.8889 23.7773L42.2556 25.0468L41.6667 25.2181Z" fill="#BDC8FF"/>
<path d="M45.0018 36.627L45.5896 36.4521L45.7642 37.039L45.1764 37.2139L45.0018 36.627Z" fill="#BDC8FF"/>
<path d="M24.3441 22.6731L23.7528 22.5102C23.8334 22.2166 23.8837 22.0267 23.893 21.9668L24.5041 22.0117C24.5026 22.0549 24.5005 22.1046 24.3441 22.6731Z" fill="#BDC8FF"/>
<path d="M20.6238 35.3684L20.0355 35.1935L20.4123 33.9252L21.0006 34.1002L20.6238 35.3684ZM21.3762 32.8325L20.7879 32.6576L21.1638 31.3899L21.7521 31.5636L21.3762 32.8325ZM22.1272 30.2954L21.5389 30.1216L21.9133 28.8522L22.5016 29.0259L22.1272 30.2954ZM22.8742 27.7583L22.2859 27.5845L22.6577 26.3163L23.2466 26.4888L22.8742 27.7583ZM23.6171 25.2181L23.0282 25.0468L23.3948 23.7773L23.9843 23.9463L23.6171 25.2181Z" fill="#BDC8FF"/>
<path d="M19.4874 37.0332L19.6632 36.4466L20.2507 36.6226L20.0749 37.2092L19.4874 37.0332Z" fill="#BDC8FF"/>
<path d="M56.9594 62.333L57.6136 51.6367C57.6278 51.4041 57.4428 51.207 57.2094 51.207H40.5811C40.4062 51.207 40.2675 51.3546 40.2781 51.5293L40.9388 62.333H56.9594Z" fill="#FF7581"/>
<path d="M51.7057 51.209L48.9897 55.8133L46.1929 51.209H51.7057Z" fill="#F26678"/>
<path d="M47.8455 46.5586C47.8446 46.5799 47.8392 46.5998 47.8392 46.6213C47.8392 47.4292 48.4941 48.0841 49.302 48.0841C50.1099 48.0841 50.7648 47.4292 50.7648 46.6213C50.7648 46.5998 50.7594 46.5799 50.7585 46.5586H47.8455Z" fill="white"/>
<path d="M51.066 36.2614C51.066 36.2614 49.561 34.0504 46.7173 34.534C43.8735 35.0177 44.4907 36.9063 43.2563 37.436C42.022 37.9657 41.571 39.3706 41.6422 40.5222C41.6422 40.5222 39.7432 41.0911 39.9093 42.3958C40.0755 43.7005 40.3635 44.092 39.899 44.5296C39.4346 44.9672 38.6038 45.7273 39.1972 46.5103C39.7906 47.2934 40.9538 47.3395 41.12 47.7771C41.2861 48.2147 41.7134 50.1493 42.7816 49.942C43.8498 49.7347 44.522 49.0668 45.0286 49.5965C45.5352 50.1263 46.9877 50.6639 47.5196 49.9575C48.0514 49.2511 51.1636 50.0681 51.1636 50.0681C51.1636 50.0681 53.3918 50.5178 54.2467 49.4123C54.2467 49.4123 56.6444 48.9977 56.8818 47.5237C56.8818 47.5237 59.2945 46.6715 59.1563 44.829C59.0182 42.9865 57.0717 43.6397 57.1666 42.3803C57.2616 41.121 57.1192 40.4301 56.1934 40.0846C55.2676 39.7391 55.2676 39.3245 55.3151 38.3572C55.3626 37.3899 54.0333 35.271 51.066 36.2614Z" fill="#34324C"/>
<path d="M51.0999 47.4941L51.1306 51.2077H46.8291L46.7984 47.4941H51.0999Z" fill="#FDC7B4"/>
<path d="M51.0999 51.2109L48.9798 54.9245L46.7984 51.2109H51.0999Z" fill="#FDC7B4"/>
<path d="M51.0999 47.4941V49.7305C49.5768 49.8022 48.1502 49.4377 46.7984 48.7089V47.4941H51.0999Z" fill="#EFB5A3"/>
<path d="M53.4572 44.5524C54.0814 44.5524 54.5875 43.9622 54.5875 43.2342C54.5875 42.5062 54.0814 41.916 53.4572 41.916C52.833 41.916 52.327 42.5062 52.327 43.2342C52.327 43.9622 52.833 44.5524 53.4572 44.5524Z" fill="#FDC7B4"/>
<path d="M53.9093 43.8273C53.883 43.8273 53.857 43.8166 53.838 43.7954C53.8035 43.756 53.8068 43.6958 53.8462 43.6609C53.9818 43.5409 54.0565 43.389 54.0565 43.2329C54.0565 43.0765 53.9818 42.9246 53.8466 42.805C53.8072 42.77 53.8035 42.7102 53.838 42.6709C53.8729 42.6315 53.9335 42.6278 53.9721 42.6623C54.1493 42.8187 54.2467 43.0212 54.2467 43.2329C54.2467 43.4443 54.1493 43.6468 53.9725 43.8036C53.9543 43.8195 53.9316 43.8273 53.9093 43.8273Z" fill="#EFB5A3"/>
<path d="M44.4904 44.5524C45.1146 44.5524 45.6207 43.9622 45.6207 43.2342C45.6207 42.5062 45.1146 41.916 44.4904 41.916C43.8662 41.916 43.3602 42.5062 43.3602 43.2342C43.3602 43.9622 43.8662 44.5524 44.4904 44.5524Z" fill="#FDC7B4"/>
<path d="M44.0383 43.8273C44.0647 43.8273 44.0907 43.8166 44.1096 43.7954C44.1442 43.756 44.1408 43.6958 44.1015 43.6609C43.9659 43.5409 43.8912 43.389 43.8912 43.2329C43.8912 43.0765 43.9659 42.9246 44.1011 42.805C44.1405 42.77 44.1442 42.7102 44.1096 42.6709C44.0747 42.6315 44.0142 42.6278 43.9755 42.6623C43.7983 42.8187 43.701 43.0212 43.701 43.2329C43.701 43.4443 43.7983 43.6468 43.9752 43.8036C43.9934 43.8195 44.016 43.8273 44.0383 43.8273Z" fill="#EFB5A3"/>
<path d="M53.6091 41.7953V44.2225C53.6091 46.8028 51.5162 48.8908 48.9408 48.8908C46.3606 48.8908 44.2725 46.8028 44.2725 44.2225V41.7953C44.2725 39.215 46.3606 37.127 48.9408 37.127C50.2309 37.127 51.3968 37.6477 52.2425 38.4934C53.0883 39.3392 53.6091 40.505 53.6091 41.7953Z" fill="#FDC7B4"/>
<path d="M47.5196 42.919C47.5196 43.243 47.3417 43.5039 47.1204 43.5039C46.8991 43.5039 46.7173 43.243 46.7173 42.919C46.7173 42.5949 46.8991 42.3301 47.1204 42.3301C47.3417 42.3301 47.5196 42.5949 47.5196 42.919Z" fill="#333333"/>
<path d="M51.1635 42.919C51.1635 43.243 50.9857 43.5039 50.7644 43.5039C50.5431 43.5039 50.3613 43.243 50.3613 42.919C50.3613 42.5949 50.5431 42.3301 50.7644 42.3301C50.9857 42.3301 51.1635 42.5949 51.1635 42.919Z" fill="#333333"/>
<path d="M47.3116 45.4395C47.3106 45.4632 47.3045 45.4856 47.3045 45.5096C47.3045 46.4133 48.0371 47.1459 48.9408 47.1459C49.8445 47.1459 50.5771 46.4133 50.5771 45.5096C50.5771 45.4856 50.571 45.4632 50.57 45.4395H47.3116Z" fill="white"/>
<path d="M53.4123 40.4421C51.2671 39.823 50.9361 38.4334 50.8929 37.992C50.8353 38.1647 50.584 39.0216 49.7057 39.2423C48.7219 39.4823 44.2703 41.9202 44.2703 41.9202L43.2577 40.9555L44.6254 38.0953L45.8059 36.7948L49.5587 36.5645L50.9024 37.4954C50.9024 37.4954 51.8958 36.7805 51.9726 36.7805C52.0494 36.7805 53.6858 38.1145 53.8154 38.1145C53.9402 38.1145 55.8598 41.1523 53.4123 40.4421Z" fill="#34324C"/>
<path d="M56.2602 62.3349L56.3443 58.0069L55.8787 57.9883L55.7943 62.3349H56.2602Z" fill="#F26678"/>
<path d="M42.104 62.3349L42.0196 57.9883L41.554 58.0069L41.6381 62.3349H42.104Z" fill="#F26678"/>
<path d="M60.5692 62.3341L60.5215 54.7106C60.5215 52.7777 58.9547 51.2109 57.0218 51.2109H56.659L56.3607 62.3341H60.5692Z" fill="#FF7581"/>
<path d="M41.5377 62.3341L41.2394 51.2109H40.8766C38.9437 51.2109 37.3768 52.7777 37.3768 54.7106L37.3291 62.3341H41.5377Z" fill="#FF7581"/>
<path d="M8.89539 50.293H25.5613V62.3325H8.89539V50.293Z" fill="#FDDF8C"/>
<path d="M19.1957 62.3339L17.9023 50.9473H16.8446L15.5512 62.3339H19.1957Z" fill="#FF7581"/>
<path d="M19.1957 62.3339L17.9023 50.9473H17.3719L18.6478 62.3339H19.1957Z" fill="#F26678"/>
<path d="M19.5858 50.2949L17.4014 52.4793L15.217 50.2949H19.5858Z" fill="#FF7581"/>
<path d="M15.1002 50.293H17.3413L14.9249 51.5966L15.1002 50.293Z" fill="#F2CF77"/>
<path d="M19.7577 51.5966L17.6995 50.4862L17.3413 50.293H19.5801L19.7577 51.5966Z" fill="#F2CF77"/>
<path d="M15.1334 47.0742H19.5691V50.2926H15.1334V47.0742Z" fill="#FDC7B4"/>
<path d="M19.5685 47.0742V49.3802C17.9981 49.4541 16.5271 49.0783 15.1332 48.3268V47.0742H19.5685Z" fill="#EFB5A3"/>
<path d="M21.6783 44.4619C22.2762 44.4619 22.7609 43.8963 22.7609 43.1987C22.7609 42.5011 22.2762 41.9355 21.6783 41.9355C21.0805 41.9355 20.5958 42.5011 20.5958 43.1987C20.5958 43.8963 21.0805 44.4619 21.6783 44.4619Z" fill="#FDC7B4"/>
<path d="M13.0892 44.4619C13.6871 44.4619 14.1718 43.8963 14.1718 43.1987C14.1718 42.5011 13.6871 41.9355 13.0892 41.9355C12.4913 41.9355 12.0066 42.5011 12.0066 43.1987C12.0066 43.8963 12.4913 44.4619 13.0892 44.4619Z" fill="#FDC7B4"/>
<path d="M21.8239 41.8232V44.1482C21.8239 46.6198 19.8192 48.6198 17.3522 48.6198C14.8807 48.6198 12.8806 46.6198 12.8806 44.1482V41.8232C12.8806 39.3516 14.8807 37.3516 17.3522 37.3516C18.588 37.3516 19.7048 37.8504 20.5149 38.6605C21.325 39.4706 21.8239 40.5873 21.8239 41.8232Z" fill="#FDC7B4"/>
<path d="M15.9908 42.898C15.9908 43.2085 15.8205 43.4583 15.6085 43.4583C15.3965 43.4583 15.2224 43.2085 15.2224 42.898C15.2224 42.5876 15.3965 42.334 15.6085 42.334C15.8205 42.334 15.9908 42.5876 15.9908 42.898Z" fill="#333333"/>
<path d="M19.4813 42.898C19.4813 43.2085 19.311 43.4583 19.099 43.4583C18.887 43.4583 18.7128 43.2085 18.7128 42.898C18.7128 42.5876 18.887 42.334 19.099 42.334C19.311 42.334 19.4813 42.5876 19.4813 42.898Z" fill="#333333"/>
<path d="M15.7916 45.3125C15.7907 45.3353 15.7849 45.3567 15.7849 45.3797C15.7849 46.2453 16.4866 46.947 17.3522 46.947C18.2178 46.947 18.9196 46.2453 18.9196 45.3797C18.9196 45.3567 18.9137 45.3353 18.9128 45.3125H15.7916Z" fill="white"/>
<path d="M21.822 41.9368V42.6309C21.4729 42.678 21.1631 42.3957 21.1748 42.0426L21.1827 41.6386C21.1827 41.6386 20.7434 41.3916 20.7041 40.8385C20.6649 40.2853 20.8061 38.9794 20.8061 38.9794C20.8061 38.9794 16.2036 40.1963 14.109 39.0237C14.109 39.0237 14.0792 40.6933 13.5536 41.3916L13.5262 42.0113C13.5144 42.3565 13.2281 42.6309 12.879 42.6309V41.8231C12.879 41.8231 11.6827 40.3246 11.8435 37.8614C12.0004 35.3981 13.5026 33.5547 13.5026 33.5547C13.5026 33.5547 13.9733 35.4138 14.5146 35.3864C14.5146 35.3864 14.1734 34.7157 14.2401 34.0998C14.2401 34.0998 15.0794 35.2217 15.707 35.155C15.707 35.155 21.3199 34.045 21.822 37.2652C21.822 37.2652 22.744 37.2909 23.0264 38.3891C23.2265 39.1776 22.1436 40.9601 21.822 41.9368Z" fill="#34324C"/>
<path d="M22.0886 43.7918C22.061 43.7918 22.0338 43.7806 22.014 43.7584C21.9779 43.7173 21.9814 43.6543 22.0226 43.6178C22.1644 43.4923 22.2425 43.3334 22.2425 43.1703C22.2425 43.0067 22.1644 42.8478 22.023 42.7227C21.9818 42.6862 21.9779 42.6237 22.014 42.5825C22.0505 42.5413 22.1139 42.5374 22.1543 42.5736C22.3396 42.7371 22.4414 42.9488 22.4414 43.1703C22.4414 43.3913 22.3396 43.603 22.1547 43.767C22.1356 43.7837 22.1119 43.7918 22.0886 43.7918Z" fill="#EFB5A3"/>
<path d="M9.7358 62.3335V50.293H8.94856C7.00575 50.293 5.43079 51.8679 5.43079 53.8107V62.3335H9.7358Z" fill="#FDDF8C"/>
<path d="M29.3712 62.3335V53.8107C29.3712 51.8679 27.7962 50.293 25.8534 50.293H25.0662V62.3335H29.3712Z" fill="#FDDF8C"/>
<path d="M46.8574 62.332L45.9005 50.8267C45.7495 48.7448 44.0163 47.1328 41.9288 47.1328H41.0859V62.332H46.8574Z" fill="#6675E9"/>
<path d="M43.0904 62.3316L42.8359 57.043H42.0087L42.2633 62.3316H43.0904Z" fill="#4C4EE1"/>
<path d="M21.484 62.332V47.1328H20.6412C18.5536 47.1328 16.8204 48.7448 16.6694 50.8267L15.7126 62.332H21.484Z" fill="#6675E9"/>
<path d="M22.7016 62.3318H41.787V47.1289H24.7335C23.2511 47.1289 21.9897 48.0616 21.4853 49.3776H22.7016V62.3318Z" fill="#D7E9F9"/>
<path d="M33.796 62.332L32.2601 47.9473H30.9379L29.402 62.332H33.796Z" fill="#FF7581"/>
<path d="M33.796 62.332L32.2601 47.9473H31.597L33.1093 62.332H33.796Z" fill="#F26678"/>
<path d="M34.2008 47.1328L31.6326 49.7011L29.0643 47.1328H34.2008Z" fill="#FF7581"/>
<path d="M27.6249 62.3312L28.9042 47.1309H21.4101L20.7877 62.3312H27.6249Z" fill="#6675E9"/>
<path d="M42.4094 62.3312L41.787 47.1309H34.2929L35.5722 62.3312H42.4094Z" fill="#6675E9"/>
<path d="M25.7584 47.1309L24.5904 49.0743C24.3752 49.4322 24.4482 49.893 24.7634 50.1669L26.1208 51.3465L24.7242 51.7975C24.2092 51.9638 23.9738 52.5587 24.2356 53.0324L27.8044 60.4624L28.9042 47.1309H25.7584Z" fill="#4C4EE1"/>
<path d="M37.4386 47.1309L38.6067 49.0743C38.8218 49.4322 38.7488 49.893 38.4336 50.1669L37.0762 51.3465L38.4728 51.7975C38.9878 51.9638 39.2233 52.5587 38.9615 53.0324L35.4148 60.4624L34.2928 47.1309H37.4386Z" fill="#4C4EE1"/>
<path d="M28.8836 47.1309H31.599L28.6712 49.8809L28.8836 47.1309Z" fill="#C5DAF5"/>
<path d="M34.4953 49.8809L31.8795 47.5385L31.4456 47.1309H34.2929L34.4953 49.8809Z" fill="#C5DAF5"/>
<path d="M20.9103 62.3316L21.1648 57.043H20.3377L20.0832 62.3316H20.9103Z" fill="#4C4EE1"/>
<path d="M28.7155 42.9961H34.4163V47.1321H28.7155V42.9961Z" fill="#FDC7B4"/>
<path d="M34.4162 42.9961V45.9599C32.3976 46.0549 30.507 45.5719 28.7155 44.606V42.9961H34.4162Z" fill="#EFB5A3"/>
<path d="M37.1278 39.6394C37.8963 39.6394 38.5193 38.9126 38.5193 38.016C38.5193 37.1194 37.8963 36.3926 37.1278 36.3926C36.3593 36.3926 35.7363 37.1194 35.7363 38.016C35.7363 38.9126 36.3593 39.6394 37.1278 39.6394Z" fill="#FDC7B4"/>
<path d="M37.6846 38.7466C37.6521 38.7466 37.6201 38.7334 37.5968 38.7073C37.5542 38.6588 37.5583 38.5847 37.6068 38.5417C37.7738 38.394 37.8657 38.2069 37.8657 38.0148C37.8657 37.8223 37.7738 37.6352 37.6073 37.4879C37.5588 37.4449 37.5542 37.3713 37.5968 37.3228C37.6397 37.2743 37.7143 37.2698 37.7619 37.3123C37.98 37.5049 38.0999 37.7541 38.0999 38.0148C38.0999 38.2751 37.98 38.5243 37.7623 38.7173C37.7399 38.737 37.712 38.7466 37.6846 38.7466Z" fill="#EFB5A3"/>
<path d="M26.0884 39.6394C26.8569 39.6394 27.4799 38.9126 27.4799 38.016C27.4799 37.1194 26.8569 36.3926 26.0884 36.3926C25.3199 36.3926 24.6969 37.1194 24.6969 38.016C24.6969 38.9126 25.3199 39.6394 26.0884 39.6394Z" fill="#FDC7B4"/>
<path d="M25.5319 38.7466C25.5644 38.7466 25.5964 38.7334 25.6197 38.7073C25.6623 38.6588 25.6582 38.5847 25.6097 38.5417C25.4427 38.394 25.3508 38.2069 25.3508 38.0148C25.3508 37.8223 25.4427 37.6352 25.6092 37.4879C25.6577 37.4449 25.6623 37.3713 25.6197 37.3228C25.5768 37.2743 25.5022 37.2698 25.4546 37.3123C25.2365 37.5049 25.1166 37.7541 25.1166 38.0148C25.1166 38.2751 25.2365 38.5243 25.4542 38.7173C25.4766 38.737 25.5045 38.7466 25.5319 38.7466Z" fill="#EFB5A3"/>
<path d="M37.315 36.2454V39.2337C37.315 42.4104 34.7384 44.981 31.5676 44.981C28.391 44.981 25.8203 42.4104 25.8203 39.2337V36.2454C25.8203 33.0687 28.391 30.498 31.5676 30.498C33.1559 30.498 34.5913 31.1392 35.6325 32.1804C36.6737 33.2216 37.315 34.657 37.315 36.2454Z" fill="#FDC7B4"/>
<path d="M29.8178 37.6293C29.8178 38.0283 29.5988 38.3494 29.3264 38.3494C29.0539 38.3494 28.8301 38.0283 28.8301 37.6293C28.8301 37.2303 29.0539 36.9043 29.3264 36.9043C29.5988 36.9043 29.8178 37.2303 29.8178 37.6293Z" fill="#333333"/>
<path d="M34.3041 37.6293C34.3041 38.0283 34.0852 38.3494 33.8127 38.3494C33.5402 38.3494 33.3164 38.0283 33.3164 37.6293C33.3164 37.2303 33.5402 36.9043 33.8127 36.9043C34.0852 36.9043 34.3041 37.2303 34.3041 37.6293Z" fill="#333333"/>
<path d="M29.5618 40.7305C29.5606 40.7598 29.5531 40.7872 29.5531 40.8168C29.5531 41.9294 30.455 42.8313 31.5676 42.8313C32.6802 42.8313 33.5821 41.9294 33.5821 40.8168C33.5821 40.7872 33.5746 40.7598 33.5734 40.7305H29.5618Z" fill="white"/>
<path d="M37.398 37.2821L37.3182 37.3519C37.3182 37.3519 36.6208 37.4317 36.6208 37.3519C36.6208 37.2722 36.4416 36.0268 36.4416 36.0268C36.4416 36.0268 35.1962 34.2932 36.0928 32.6992C36.0928 32.6992 32.3186 34.7899 27.367 32.8372C27.367 32.8372 26.6933 33.3942 26.9087 34.9095C27.0144 35.6524 26.6777 36.7342 26.3588 37.86H25.8209L25.3825 36.6146C25.3825 36.6146 23.2605 32.7092 25.6515 30.7166C25.6515 30.7166 24.8047 27.5283 28.3714 26.3925L28.9593 28.2755C28.9593 28.2755 30.364 26.0638 33.1637 25.9442C35.9733 25.8147 35.3655 28.3652 35.3655 28.3652C35.3655 28.3652 37.1489 27.5283 37.8363 28.4649C38.5139 29.4014 37.398 30.3578 37.398 30.3578C37.398 30.3578 38.2947 31.0054 38.6334 32.5099C38.9822 34.0143 37.398 37.2821 37.398 37.2821Z" fill="#373754"/>
<path d="M21.4121 23.6141H27.5459L26.455 16.6612C26.1825 14.9249 26.6818 13.163 27.8243 11.8271C28.9664 10.4919 30.6295 9.72565 32.3871 9.72565C34.1447 9.72565 35.8078 10.4919 36.9499 11.8271C38.0924 13.163 38.5917 14.9249 38.3191 16.6612L37.2283 23.6141H43.3621L44.3056 17.6004C44.8529 14.1122 43.8503 10.572 41.555 7.88824C39.2597 5.20545 35.9181 3.66602 32.3871 3.66602C28.8561 3.66602 25.5145 5.20545 23.2192 7.88824C20.9239 10.572 19.9213 14.1122 20.4686 17.6004L21.4121 23.6141Z" fill="#6675E9"/>
<path d="M27.5458 23.6143L27.0392 20.3848H20.9055L21.4121 23.6143H27.5458Z" fill="#FDDF8C"/>
<path d="M43.3621 23.6143L43.8688 20.3848H37.735L37.2284 23.6143H43.3621Z" fill="#FF7581"/>
</svg>
