<svg width="67" height="66" viewBox="0 0 67 66" fill="none" xmlns="http://www.w3.org/2000/svg">
<path fill-rule="evenodd" clip-rule="evenodd" d="M39.7417 23.9414H13.4626V63.9369L26.6022 56.0699L39.7417 63.9369V23.9414Z" fill="#EC6669"/>
<path fill-rule="evenodd" clip-rule="evenodd" d="M8.82077 8.3209C9.05518 10.557 8.576 12.8099 7.45184 14.757C6.32768 16.7041 4.6162 18.2456 2.5625 19.1606C3.87753 20.9824 4.58527 23.1722 4.58527 25.419C4.58527 27.6659 3.87753 29.8556 2.5625 31.6774C4.61621 32.5925 6.3277 34.1339 7.45186 36.081C8.57603 38.0281 9.0552 40.2811 8.82077 42.5171C11.0569 42.2827 13.3098 42.7619 15.2569 43.8861C17.204 45.0103 18.7455 46.7218 19.6605 48.7755C21.4823 47.4605 23.6721 46.7528 25.9189 46.7528C28.1657 46.7528 30.3555 47.4605 32.1773 48.7755C33.0923 46.7218 34.6337 45.0103 36.5809 43.8861C38.528 42.762 40.7809 42.2828 43.017 42.5173C42.7825 40.2812 43.2617 38.0282 44.3858 36.0811C45.51 34.134 47.2215 32.5925 49.2753 31.6776C47.9603 29.8557 47.2525 27.666 47.2525 25.4192C47.2525 23.1723 47.9603 20.9826 49.2753 19.1608C47.2215 18.2458 45.51 16.7043 44.3859 14.7572C43.2617 12.8101 42.7825 10.5571 43.017 8.32103C40.7809 8.5555 38.5279 8.07631 36.5807 6.9521C34.6335 5.82788 33.092 4.11631 32.177 2.0625C30.3552 3.37751 28.1655 4.08524 25.9186 4.08524C23.6718 4.08524 21.4821 3.37751 19.6602 2.0625C18.7452 4.11619 17.2038 5.82768 15.2568 6.95186C13.3097 8.07604 11.0568 8.55526 8.82077 8.3209Z" fill="#F7E172"/>
<path fill-rule="evenodd" clip-rule="evenodd" d="M28.7114 12.0475C30.3814 12.395 31.9709 13.0541 33.3969 13.9902L35.4708 11.9162L39.4203 15.8655L37.3463 17.9395C38.2823 19.3657 38.9414 20.9554 39.2889 22.6255H42.2211V28.2108H39.2893C38.9418 29.8809 38.2827 31.4705 37.3467 32.8966L39.4206 34.9706L35.4712 38.9199L33.3969 36.8461C31.9707 37.7821 30.3811 38.4412 28.711 38.7888V41.7209H23.126V38.7888C21.4559 38.4412 19.8662 37.7821 18.4401 36.8461L16.3661 38.9199L12.4167 34.9706L14.4908 32.8966C13.5547 31.4706 12.8956 29.8809 12.5481 28.2108H9.61584V22.6255H12.5481C12.8956 20.9554 13.5547 19.3656 14.4908 17.9395L12.4167 15.8655L16.3661 11.9162L18.4401 13.9902C19.8662 13.054 21.4559 12.395 23.126 12.0475V9.11523H28.7114V12.0475Z" fill="#E4B463"/>
<path fill-rule="evenodd" clip-rule="evenodd" d="M25.9188 17.1543L27.9607 23.4802L34.608 23.4674L29.2228 27.3642L31.289 33.6823L25.9188 29.7648L20.5484 33.6823L22.6148 27.3642L17.2295 23.4674L23.8768 23.4802L25.9188 17.1543Z" fill="#EC6669"/>
<path d="M55.0459 51.5469C60.2327 51.5469 64.4375 47.3421 64.4375 42.1553C64.4375 36.9684 60.2327 32.7637 55.0459 32.7637C49.8591 32.7637 45.6543 36.9684 45.6543 42.1553C45.6543 47.3421 49.8591 51.5469 55.0459 51.5469Z" fill="#B4D46E"/>
<path fill-rule="evenodd" clip-rule="evenodd" d="M60.5742 38.2875C60.719 38.4325 60.8004 38.6291 60.8004 38.834C60.8004 39.039 60.719 39.2356 60.5742 39.3806L53.9332 46.0218C53.8614 46.0937 53.7762 46.1507 53.6824 46.1897C53.5886 46.2286 53.488 46.2486 53.3865 46.2486C53.2849 46.2486 53.1844 46.2286 53.0905 46.1897C52.9967 46.1507 52.9115 46.0937 52.8398 46.0218L49.5194 42.7012C49.443 42.6305 49.3817 42.5451 49.3391 42.4502C49.2965 42.3552 49.2735 42.2526 49.2715 42.1486C49.2695 42.0445 49.2885 41.9411 49.3274 41.8446C49.3663 41.7481 49.4243 41.6604 49.4978 41.5868C49.5714 41.5132 49.6591 41.4552 49.7556 41.4163C49.8521 41.3774 49.9555 41.3583 50.0596 41.3603C50.1636 41.3623 50.2662 41.3853 50.3612 41.4279C50.4562 41.4704 50.5416 41.5317 50.6123 41.6081L53.3865 44.3809L59.4799 38.2875C59.5517 38.2155 59.637 38.1585 59.7309 38.1195C59.8248 38.0806 59.9255 38.0606 60.0271 38.0606C60.1288 38.0606 60.2295 38.0806 60.3234 38.1195C60.4173 38.1585 60.5026 38.2155 60.5744 38.2875H60.5742ZM55.0467 50.772C56.7511 50.7719 58.4173 50.2663 59.8344 49.3192C61.2516 48.3721 62.356 47.0261 63.0082 45.4513C63.6603 43.8765 63.8308 42.1437 63.4982 40.472C63.1655 38.8003 62.3446 37.2648 61.1392 36.0596C59.9339 34.8545 58.3982 34.0338 56.7265 33.7014C55.0547 33.369 53.322 33.5398 51.7473 34.1922C50.1726 34.8446 48.8267 35.9493 47.8799 37.3666C46.933 38.7839 46.4277 40.4502 46.4279 42.1546C46.4304 44.4396 47.3393 46.6302 48.9552 48.2457C50.571 49.8613 52.7617 50.7698 55.0467 50.772ZM55.0467 31.9891C53.0362 31.989 51.0709 32.585 49.3992 33.7018C47.7275 34.8187 46.4246 36.4061 45.6551 38.2635C44.8856 40.1208 44.6842 42.1646 45.0763 44.1364C45.4684 46.1083 46.4364 47.9195 47.8579 49.3412C49.2794 50.7629 51.0905 51.7311 53.0623 52.1235C55.0341 52.5158 57.0779 52.3146 58.9354 51.5454C60.7928 50.7762 62.3804 49.4734 63.4975 47.8019C64.6145 46.1303 65.2108 44.1651 65.2109 42.1546C65.2077 39.4598 64.1358 36.8763 62.2305 34.9706C60.3251 33.065 57.7417 31.9928 55.0469 31.9891H55.0467ZM28.7691 26.7375C28.6365 26.8337 28.5378 26.9696 28.4873 27.1255C28.4367 27.2813 28.4369 27.4492 28.4878 27.605L29.8093 31.6449L26.3752 29.1403C26.2425 29.0439 26.0828 28.992 25.9188 28.992C25.7548 28.992 25.5951 29.0439 25.4624 29.1403L22.0286 31.6449L23.3498 27.605C23.4007 27.4493 23.401 27.2814 23.3505 27.1255C23.2999 26.9696 23.2013 26.8337 23.0686 26.7375L19.6245 24.2457L23.8758 24.2534H23.8769C24.0403 24.2535 24.1996 24.2018 24.3319 24.1057C24.4641 24.0095 24.5625 23.874 24.6129 23.7185L25.9189 19.6721L27.2247 23.719C27.2753 23.8746 27.3739 24.0102 27.5064 24.1063C27.6389 24.2024 27.7984 24.2541 27.962 24.254L32.2134 24.2462L28.7691 26.7375ZM34.6086 22.6937L28.5242 22.7053L26.6551 16.9174C26.6043 16.7622 26.5058 16.627 26.3736 16.5311C26.2414 16.4352 26.0822 16.3836 25.9189 16.3836C25.7556 16.3836 25.5965 16.4352 25.4643 16.5311C25.3321 16.627 25.2336 16.7622 25.1828 16.9174L23.3137 22.7053L17.2293 22.6937C17.0664 22.6948 16.908 22.7472 16.7765 22.8434C16.6451 22.9396 16.5473 23.0748 16.497 23.2298C16.4468 23.3848 16.4467 23.5516 16.4966 23.7067C16.5466 23.8617 16.6441 23.9971 16.7754 24.0936L21.7049 27.6604L19.8139 33.4419C19.7644 33.5972 19.7651 33.7641 19.8159 33.919C19.8668 34.0738 19.9651 34.2087 20.097 34.3045C20.2288 34.4003 20.3875 34.452 20.5505 34.4525C20.7135 34.4529 20.8725 34.4019 21.0048 34.3068L25.9189 30.722L30.8328 34.3068C30.9649 34.4033 31.1242 34.4553 31.2878 34.4555C31.4514 34.4557 31.6108 34.404 31.7431 34.3079C31.8755 34.2118 31.974 34.0762 32.0244 33.9206C32.0748 33.7649 32.0747 33.5974 32.0239 33.4419L30.1328 27.6604L35.0624 24.0936C35.1936 23.9971 35.2911 23.8617 35.341 23.7066C35.391 23.5516 35.3908 23.3848 35.3405 23.2298C35.2903 23.0749 35.1925 22.9397 35.0611 22.8435C34.9297 22.7472 34.7713 22.6948 34.6084 22.6937H34.6086ZM41.4483 27.4374V23.3988H39.2889C39.1114 23.3987 38.9392 23.3376 38.8015 23.2256C38.6637 23.1136 38.5686 22.9577 38.5322 22.7839C38.2052 21.2084 37.5838 19.7088 36.7006 18.3637C36.603 18.2152 36.5595 18.0375 36.5776 17.8607C36.5957 17.6839 36.6743 17.5187 36.8 17.393L38.3274 15.8655L35.4708 13.0102L33.9446 14.5378C33.8188 14.6633 33.6536 14.7418 33.4768 14.7598C33.3 14.7779 33.1224 14.7345 32.9738 14.637C31.6289 13.7535 30.1292 13.132 28.5536 12.8053C28.3795 12.7689 28.2231 12.6737 28.111 12.5357C27.9988 12.3977 27.9375 12.2252 27.9375 12.0473V9.88942H23.9002V12.0473C23.9002 12.2252 23.839 12.3977 23.7268 12.5358C23.6145 12.6738 23.4582 12.769 23.284 12.8053C21.7084 13.1321 20.2087 13.7535 18.8638 14.637C18.7153 14.7346 18.5377 14.7781 18.361 14.76C18.1842 14.7419 18.0191 14.6634 17.8934 14.5378L16.3672 13.0102L13.5106 15.8655L15.038 17.393C15.1635 17.5188 15.2419 17.684 15.26 17.8608C15.278 18.0376 15.2346 18.2152 15.1371 18.3637C14.254 19.7088 13.6325 21.2084 13.3054 22.7839C13.2692 22.9577 13.1741 23.1138 13.0364 23.2258C12.8986 23.3377 12.7264 23.3989 12.5488 23.3988H10.3897V27.4374H12.5486C12.7263 27.4376 12.8986 27.4989 13.0364 27.6111C13.1742 27.7233 13.2691 27.8796 13.3053 28.0536C13.6319 29.6288 14.2534 31.1281 15.137 32.4725C15.2347 32.6212 15.2781 32.799 15.2601 32.976C15.2421 33.153 15.1637 33.3184 15.0381 33.4445L13.5105 34.9707L16.367 37.8273L17.8932 36.2997C18.0189 36.1742 18.1839 36.0957 18.3606 36.0774C18.5373 36.0591 18.7149 36.1021 18.8637 36.1992C20.2084 37.0833 21.7081 37.7052 23.2839 38.0322C23.4579 38.0683 23.6142 38.1633 23.7265 38.3011C23.8387 38.4389 23.9001 38.6112 23.9002 38.7889V40.9481H27.9375V38.7889C27.9378 38.6112 27.9992 38.439 28.1114 38.3013C28.2236 38.1635 28.3798 38.0685 28.5537 38.0322C30.1295 37.7053 31.6292 37.0834 32.9739 36.1992C33.1226 36.1018 33.3004 36.0587 33.4772 36.077C33.654 36.0953 33.8191 36.174 33.9447 36.2997L35.471 37.8273L38.3275 34.9707L36.8 33.4445C36.6743 33.3185 36.5958 33.1531 36.5777 32.9761C36.5596 32.7991 36.6031 32.6213 36.7007 32.4725C37.5845 31.1282 38.2059 29.6289 38.5323 28.0536C38.5686 27.8796 38.6637 27.7234 38.8015 27.6112C38.9393 27.499 39.1116 27.4376 39.2893 27.4374H41.4483ZM42.2218 21.8519H39.9053C39.5655 20.5159 39.0345 19.2359 38.3287 18.0518L39.9673 16.4134C40.0393 16.3416 40.0965 16.2563 40.1355 16.1624C40.1745 16.0685 40.1945 15.9678 40.1945 15.8662C40.1945 15.7645 40.1745 15.6638 40.1355 15.5699C40.0965 15.476 40.0393 15.3907 39.9673 15.3189L36.0187 11.3698C35.8731 11.2255 35.6764 11.1446 35.4715 11.1446C35.2665 11.1446 35.0698 11.2255 34.9243 11.3698L33.2859 13.0095C32.1012 12.3037 30.8208 11.7727 29.4844 11.4329V9.11598C29.4845 9.01438 29.4646 8.91375 29.4258 8.81986C29.387 8.72597 29.33 8.64066 29.2581 8.56881C29.1863 8.49697 29.101 8.44 29.0071 8.40118C28.9132 8.36235 28.8126 8.34242 28.711 8.34254H23.1268C23.0252 8.34242 22.9245 8.36235 22.8306 8.40118C22.7367 8.44 22.6514 8.49697 22.5796 8.56881C22.5077 8.64066 22.4508 8.72597 22.412 8.81986C22.3731 8.91375 22.3532 9.01438 22.3533 9.11598V11.4324C21.0168 11.7722 19.7364 12.3032 18.5517 13.0089L16.9135 11.3698C16.7679 11.2255 16.5712 11.1445 16.3662 11.1445C16.1612 11.1445 15.9645 11.2255 15.8189 11.3698L11.8705 15.3195C11.7986 15.3913 11.7416 15.4766 11.7027 15.5705C11.6637 15.6644 11.6437 15.765 11.6437 15.8667C11.6437 15.9683 11.6637 16.069 11.7027 16.1629C11.7416 16.2567 11.7986 16.342 11.8705 16.4139L13.5089 18.0523C12.8033 19.2365 12.2723 20.5165 11.9324 21.8524H9.61609C9.41103 21.8526 9.21442 21.9342 9.06942 22.0792C8.92441 22.2242 8.84286 22.4208 8.84266 22.6259V28.2114C8.84266 28.4165 8.92414 28.6132 9.06919 28.7583C9.21424 28.9033 9.41096 28.9848 9.61609 28.9848H11.9327C12.2723 30.3212 12.8032 31.6016 13.5089 32.7863L11.8705 34.4247C11.7986 34.4963 11.7414 34.5815 11.7025 34.6753C11.6635 34.7691 11.6434 34.8697 11.6434 34.9712C11.6434 35.0728 11.6635 35.1734 11.7025 35.2672C11.7414 35.3609 11.7986 35.4461 11.8705 35.5178L15.8192 39.4675C15.891 39.5395 15.9762 39.5966 16.0701 39.6356C16.164 39.6746 16.2647 39.6947 16.3663 39.6947C16.468 39.6947 16.5687 39.6746 16.6626 39.6356C16.7564 39.5966 16.8417 39.5395 16.9135 39.4675L18.5519 37.8291C19.7362 38.5351 21.0166 39.0657 22.3532 39.4043V41.722C22.3532 41.9272 22.4347 42.1239 22.5797 42.2689C22.7248 42.414 22.9215 42.4955 23.1266 42.4955H28.7111C28.9162 42.4955 29.113 42.414 29.258 42.2689C29.4031 42.1239 29.4845 41.9272 29.4845 41.722V39.4043C30.8212 39.0658 32.1017 38.5352 33.286 37.8291L34.9245 39.4675C34.9963 39.5395 35.0815 39.5966 35.1754 39.6356C35.2693 39.6746 35.37 39.6947 35.4717 39.6947C35.5733 39.6947 35.674 39.6746 35.7679 39.6356C35.8618 39.5966 35.947 39.5395 36.0188 39.4675L39.9673 35.5178C40.0393 35.4461 40.0965 35.361 40.1355 35.2672C40.1745 35.1734 40.1945 35.0728 40.1945 34.9712C40.1945 34.8696 40.1745 34.7691 40.1355 34.6753C40.0965 34.5815 40.0393 34.4963 39.9673 34.4247L38.3292 32.7863C39.0349 31.6016 39.5658 30.3212 39.9055 28.9848H42.222C42.4272 28.9848 42.6239 28.9033 42.7689 28.7583C42.914 28.6132 42.9955 28.4165 42.9955 28.2114V22.6259C42.9953 22.4208 42.9137 22.2242 42.7687 22.0792C42.6237 21.9342 42.4271 21.8526 42.222 21.8524L42.2218 21.8519ZM42.1881 41.6867C40.0865 41.6301 38.0102 42.1565 36.1895 43.2077C34.3688 44.2589 32.8748 45.7938 31.873 47.6422C30.0778 46.5534 28.0185 45.9776 25.9189 45.9776C23.8193 45.9776 21.7599 46.5534 19.9647 47.6422C18.9631 45.7937 17.469 44.2588 15.6483 43.2075C13.8276 42.1563 11.7513 41.6299 9.64961 41.6867C9.70698 39.5853 9.18096 37.5091 8.12992 35.6885C7.07888 33.8679 5.54393 32.3741 3.69543 31.3729C4.78431 29.5775 5.36005 27.5179 5.36005 25.4181C5.36005 23.3183 4.78431 21.2587 3.69543 19.4633C5.54414 18.4624 7.07926 16.9686 8.13033 15.148C9.1814 13.3273 9.70729 11.251 9.64961 9.1495C11.7513 9.20631 13.8276 8.67992 15.6484 7.6287C17.4691 6.57749 18.9632 5.04253 19.9648 3.19403C21.7597 4.28367 23.8192 4.85988 25.919 4.85988C28.0188 4.85988 30.0783 4.28367 31.8732 3.19403C32.875 5.04237 34.369 6.57721 36.1897 7.6284C38.0104 8.67959 40.0866 9.20608 42.1883 9.1495C42.1306 11.251 42.6566 13.3273 43.7076 15.1479C44.7587 16.9686 46.2938 18.4623 48.1424 19.4633C47.0537 21.2587 46.478 23.3183 46.478 25.4181C46.478 27.5179 47.0537 29.5775 48.1424 31.3729C46.294 32.3742 44.7591 33.8679 43.7081 35.6885C42.657 37.5091 42.131 39.5853 42.1883 41.6867H42.1881ZM38.9682 62.5721V43.6737C37.626 44.0897 36.3886 44.7884 35.339 45.7227C34.2895 46.657 33.4523 47.8053 32.8838 49.0903C32.8367 49.1954 32.7668 49.2887 32.6792 49.3634C32.5915 49.4381 32.4883 49.4923 32.3771 49.522C32.2658 49.5518 32.1493 49.5564 32.0361 49.5354C31.9229 49.5145 31.8157 49.4686 31.7225 49.401C30.0301 48.1888 28.0007 47.537 25.9191 47.537C23.8374 47.537 21.808 48.1888 20.1156 49.401C20.0224 49.4687 19.9151 49.5148 19.8018 49.5357C19.6884 49.5567 19.5718 49.5521 19.4605 49.5222C19.3491 49.4923 19.2459 49.4379 19.1583 49.3629C19.0707 49.288 19.001 49.1944 18.9542 49.089C18.0093 46.9554 16.3372 45.2267 14.2362 44.2112V62.5726L26.205 55.4067C26.3254 55.3352 26.4628 55.2975 26.6028 55.2975C26.7428 55.2975 26.8802 55.3352 27.0005 55.4067L38.9682 62.5726V62.5721ZM49.5901 32.3836C49.6952 32.3365 49.7886 32.2667 49.8633 32.179C49.938 32.0913 49.9922 31.9881 50.022 31.8768C50.0517 31.7655 50.0563 31.649 50.0353 31.5358C50.0143 31.4225 49.9684 31.3153 49.9007 31.2221C48.6886 29.5298 48.0368 27.5004 48.0368 25.4188C48.0368 23.3371 48.6886 21.3077 49.9007 19.6154C49.9683 19.5222 50.0143 19.415 50.0353 19.3017C50.0562 19.1885 50.0517 19.072 50.0219 18.9607C49.9921 18.8494 49.9379 18.7462 49.8632 18.6585C49.7885 18.5709 49.6952 18.501 49.5901 18.4539C47.682 17.6101 46.0915 16.1815 45.0484 14.3747C44.0053 12.5678 43.5634 10.4762 43.7867 8.40184C43.7985 8.28721 43.7846 8.17139 43.746 8.06281C43.7074 7.95423 43.6451 7.85561 43.5636 7.77413C43.4821 7.69264 43.3835 7.63034 43.2749 7.59176C43.1664 7.55317 43.0505 7.53927 42.9359 7.55106C40.8616 7.77403 38.7701 7.33206 36.9633 6.28895C35.1565 5.24585 33.7279 3.65557 32.8838 1.7477C32.8369 1.64246 32.7671 1.54903 32.6794 1.47424C32.5918 1.39945 32.4885 1.34518 32.3772 1.31541C32.2659 1.28563 32.1494 1.2811 32.0361 1.30214C31.9228 1.32319 31.8157 1.36927 31.7225 1.43703C30.0299 2.6486 28.0006 3.30006 25.9191 3.30006C23.8375 3.30006 21.8082 2.6486 20.1156 1.43703C20.0224 1.36925 19.9153 1.32314 19.802 1.30208C19.6887 1.28103 19.5721 1.28555 19.4608 1.31533C19.3495 1.34511 19.2462 1.39938 19.1586 1.47419C19.0709 1.54899 19.0011 1.64244 18.9542 1.7477C18.1099 3.65543 16.6813 5.24558 14.8745 6.28866C13.0678 7.33174 10.9764 7.7738 8.90208 7.55106C8.78745 7.53924 8.67162 7.55313 8.56303 7.59171C8.45443 7.63029 8.3558 7.69258 8.27432 7.77407C8.19283 7.85556 8.13053 7.95419 8.09195 8.06278C8.05337 8.17138 8.03948 8.2872 8.0513 8.40184C8.27458 10.4762 7.83273 12.5679 6.78957 14.3747C5.7464 16.1816 4.15591 17.6101 2.24781 18.4539C2.1427 18.501 2.04941 18.5709 1.97473 18.6586C1.90005 18.7463 1.84586 18.8495 1.8161 18.9607C1.78634 19.072 1.78177 19.1885 1.80271 19.3017C1.82365 19.415 1.86957 19.5221 1.93715 19.6154C3.14931 21.3077 3.80113 23.3371 3.80113 25.4188C3.80113 27.5004 3.14931 29.5298 1.93715 31.2221C1.86957 31.3154 1.82365 31.4225 1.80271 31.5358C1.78177 31.649 1.78634 31.7655 1.8161 31.8768C1.84586 31.988 1.90005 32.0912 1.97473 32.1789C2.04941 32.2666 2.1427 32.3365 2.24781 32.3836C4.15596 33.2275 5.74648 34.6561 6.78963 36.463C7.83277 38.27 8.27456 40.3617 8.05117 42.4362C8.0392 42.5508 8.05299 42.6666 8.09153 42.7752C8.13007 42.8838 8.19239 42.9824 8.27393 43.0639C8.35548 43.1453 8.45419 43.2075 8.56284 43.2458C8.6715 43.2842 8.78736 43.2978 8.90195 43.2857C10.1741 43.1509 11.4603 43.2643 12.6892 43.6195V63.9377C12.6892 64.0745 12.7255 64.2088 12.7943 64.327C12.8631 64.4451 12.9621 64.5429 13.081 64.6104C13.2 64.6779 13.3347 64.7126 13.4714 64.7111C13.6082 64.7095 13.742 64.6718 13.8594 64.6016L26.6021 56.9716L39.3443 64.6016C39.4618 64.6716 39.5956 64.7092 39.7323 64.7107C39.869 64.7121 40.0036 64.6774 40.1225 64.6099C40.2414 64.5425 40.3403 64.4448 40.4092 64.3267C40.4781 64.2086 40.5145 64.0744 40.5147 63.9377V43.3264C41.317 43.2145 42.1299 43.2007 42.9355 43.2852C43.0501 43.297 43.1658 43.2832 43.2743 43.2448C43.3829 43.2063 43.4815 43.1441 43.563 43.0628C43.6444 42.9814 43.7068 42.8829 43.7454 42.7744C43.784 42.6659 43.798 42.5502 43.7863 42.4357C43.563 40.3613 44.0049 38.2696 45.0481 36.4628C46.0912 34.6559 47.6817 33.2274 49.5898 32.3836H49.5901Z" fill="#1C0838"/>
</svg>
